<svg xmlns="http://www.w3.org/2000/svg" xmlns:xlink="http://www.w3.org/1999/xlink" viewBox="0 0 500 500"><defs><style>.cls-1{isolation:isolate;}.cls-2{fill:#bee1f4;}.cls-3{fill:#97c6db;}.cls-4{fill:#89bcce;}.cls-5{fill:#112b46;}.cls-6{fill:url(#linear-gradient);}.cls-7{fill:url(#linear-gradient-2);}.cls-8{fill:url(#linear-gradient-3);}.cls-11,.cls-9{fill:#e6e7e8;}.cls-10,.cls-9{mix-blend-mode:multiply;}.cls-12{fill:#7aabbc;}.cls-13{fill:#0a2033;}.cls-14,.cls-35{fill:#f9fbfc;}.cls-15{fill:#fbd15b;}.cls-16{fill:#ff8578;}.cls-17{fill:#1d262d;}.cls-18{fill:url(#radial-gradient);}.cls-19{fill:#efa78b;}.cls-20{fill:#ffc8af;}.cls-21{fill:url(#linear-gradient-4);}.cls-22{fill:#243c55;}.cls-23{fill:url(#linear-gradient-5);}.cls-24{fill:url(#linear-gradient-6);}.cls-25{fill:url(#linear-gradient-7);}.cls-26{fill:#3030ef;}.cls-27{fill:url(#radial-gradient-2);}.cls-28{fill:url(#radial-gradient-3);}.cls-29{fill:url(#linear-gradient-8);}.cls-30{fill:url(#linear-gradient-9);}.cls-31{fill:url(#linear-gradient-10);}.cls-32{fill:url(#linear-gradient-11);}.cls-33{fill:url(#linear-gradient-12);}.cls-34{fill:#bc8867;}.cls-35{font-size:16.14px;}.cls-35,.cls-37{font-family:FiraSans-Medium, FiraSans Medium;}.cls-36{fill:#878cf0;}.cls-37{font-size:19.25px;fill:#f1f2f2;}</style><linearGradient id="linear-gradient" x1="115.19" y1="340.97" x2="115.19" y2="387.3" gradientUnits="userSpaceOnUse"><stop offset="0" stop-color="#7978e0"/><stop offset="1" stop-color="#563fda"/></linearGradient><linearGradient id="linear-gradient-2" x1="62.75" y1="370.42" x2="62.75" y2="393.5" xlink:href="#linear-gradient"/><linearGradient id="linear-gradient-3" x1="77.04" y1="331.68" x2="77.04" y2="384.09" xlink:href="#linear-gradient"/><radialGradient id="radial-gradient" cx="191.81" cy="154.97" r="33.96" gradientUnits="userSpaceOnUse"><stop offset="0" stop-color="#ffc8af"/><stop offset="1" stop-color="#ffbb9c"/></radialGradient><linearGradient id="linear-gradient-4" x1="305.68" y1="402.46" x2="319.94" y2="427.16" xlink:href="#linear-gradient"/><linearGradient id="linear-gradient-5" x1="239.86" y1="403.6" x2="257.33" y2="433.86" xlink:href="#linear-gradient"/><linearGradient id="linear-gradient-6" x1="162.05" y1="214.63" x2="202.37" y2="214.63" gradientUnits="userSpaceOnUse"><stop offset="0" stop-color="#606bf1"/><stop offset="1" stop-color="#433aff"/></linearGradient><linearGradient id="linear-gradient-7" x1="128.8" y1="188.64" x2="187.79" y2="290.81" xlink:href="#linear-gradient-6"/><radialGradient id="radial-gradient-2" cx="226.23" cy="243.97" r="42.99" xlink:href="#radial-gradient"/><radialGradient id="radial-gradient-3" cx="191.82" cy="154.97" r="33.95" xlink:href="#radial-gradient"/><linearGradient id="linear-gradient-8" x1="173.89" y1="176.21" x2="173.89" y2="242.42" xlink:href="#linear-gradient-6"/><linearGradient id="linear-gradient-9" x1="200.53" y1="119.46" x2="200.53" y2="156.08" gradientUnits="userSpaceOnUse"><stop offset="0" stop-color="#56549e"/><stop offset="0.99" stop-color="#2e2c71"/></linearGradient><linearGradient id="linear-gradient-10" x1="164.28" y1="302.3" x2="198.32" y2="361.25" gradientTransform="translate(362.6 663.55) rotate(180)" gradientUnits="userSpaceOnUse"><stop offset="0" stop-color="#ec827d"/><stop offset="1" stop-color="#ff5a7d"/></linearGradient><linearGradient id="linear-gradient-11" x1="167.5" y1="396.82" x2="194.33" y2="443.31" gradientTransform="translate(362.6 837.25) rotate(-180)" xlink:href="#linear-gradient-10"/><linearGradient id="linear-gradient-12" x1="104.17" y1="220.75" x2="126.61" y2="259.61" gradientTransform="matrix(1, 0, 0, 1, 0, 0)" xlink:href="#linear-gradient-10"/></defs><title>2844242</title><g class="cls-1"><g id="BACKGROUND"><rect class="cls-2" width="500" height="500"/><path class="cls-3" d="M410.08,342.81,397.15,433.6H68.37l-9.71-69.26a17.23,17.23,0,0,1,10.45-18.29l29.18-12.11v-29a17.2,17.2,0,0,1,14.72-17l6.9-1,11.59-39.19A17.2,17.2,0,0,1,148,235.36H266.55a17.19,17.19,0,0,1,17.16,16l56.45,6a17.22,17.22,0,0,1,15.38,16.11l2.28,39.16,39.89,11.27A17.22,17.22,0,0,1,410.08,342.81Z"/><path class="cls-4" d="M392.48,395.48l-5.43,38.12H153.81l-3.26-23.29a11.84,11.84,0,0,1,7.19-12.59l20.09-8.34v-20A11.85,11.85,0,0,1,188,357.67l4.76-.69,8-27a11.84,11.84,0,0,1,11.36-8.49h81.61a11.85,11.85,0,0,1,11.82,11l38.86,4.1a11.86,11.86,0,0,1,10.59,11.1l1.57,26.95L384,382.41A11.85,11.85,0,0,1,392.48,395.48Z"/></g><g id="OBJECTS"><rect class="cls-3" x="39.82" y="430.67" width="421.7" height="5.85"/><path class="cls-5" d="M100.79,382.87s-.68,2-1.4,4.57a45,45,0,0,0-1.64,7.7l1.21.09a44.15,44.15,0,0,1,1.6-7.46c.36-1.25.7-2.38,1-3.2s.43-1.31.43-1.31l-1.15-.39Z"/><path class="cls-5" d="M89.91,383.88s0,.21.06.58c.11,1.12.33,3.73.33,6.56,0,1.33,0,2.7-.18,4l1.21.12c.13-1.35.18-2.76.18-4.11a70.58,70.58,0,0,0-.4-7.28l-1.21.14Z"/><path class="cls-5" d="M83.88,391.93h0a4.52,4.52,0,0,1,.52.76,3.13,3.13,0,0,1,.43,1.47h1.22a4.39,4.39,0,0,0-.64-2.16,5.49,5.49,0,0,0-.64-.89l-.9.82Z"/><path class="cls-6" d="M99.34,384.11s-6.24-7.91,3.35-24.35S132.06,339.37,133,341.5s-10,6.24-13.09,18.87-3.45,19.63-7.25,23.44S103.65,389.13,99.34,384.11Z"/><path class="cls-7" d="M86.5,385.71s-.68-8.9-16.79-13.85S38.33,376.2,39,378.13s10.29-2,19.85,4.44,14,10.72,18.79,10.91S86.7,391.57,86.5,385.71Z"/><path class="cls-8" d="M96.19,379.88s10.75-11.54-1.72-30-39.94-19.75-40.85-17.19,10.75,7.39,15.28,21.91,7,21.8,11.73,26S91.54,386.07,96.19,379.88Z"/><path class="cls-9" d="M101.88,381.67l-.16,0a.61.61,0,0,1-.42-.75c.28-1,7-24.72,19.32-33.78a.61.61,0,1,1,.72,1c-12,8.81-18.8,32.88-18.87,33.12A.61.61,0,0,1,101.88,381.67Z"/><path class="cls-9" d="M89.43,378.67a.67.67,0,0,1-.61-.45,2.71,2.71,0,0,1-.07-.66c-.56-8.34-4.11-36-26.44-41.86a.61.61,0,1,1,.31-1.18c23.12,6,26.78,34.41,27.35,43,0,.23,0,.38,0,.44a.57.57,0,0,1-.4.73Z"/><g class="cls-10"><path class="cls-11" d="M81.91,389.75c-.28,0-.55-.25-1.44-1.05-10-9.06-19.66-13.35-28.69-12.77a.61.61,0,0,1-.08-1.22c9.37-.62,19.32,3.79,29.59,13.08.36.32.72.65.87.76a.61.61,0,0,1,0,1.15A.7.7,0,0,1,81.91,389.75Z"/></g><path class="cls-2" d="M106.82,431H75.43a1.7,1.7,0,0,1-1.65-1.31l-8.22-35.51h51.13l-8.22,35.51A1.7,1.7,0,0,1,106.82,431Z"/><polygon class="cls-12" points="67.95 404.49 114.3 404.49 116.69 394.16 65.56 394.16 67.95 404.49"/><polygon class="cls-2" points="66.04 396.25 116.21 396.25 116.69 394.16 65.56 394.16 66.04 396.25"/><rect class="cls-13" x="224.6" y="104.09" width="143.44" height="78.09"/><circle class="cls-14" cx="229.44" cy="108.31" r="1.51"/><circle class="cls-15" cx="235.76" cy="108.31" r="1.51"/><circle class="cls-16" cx="241.63" cy="108.47" r="1.51"/><rect class="cls-15" x="239.48" y="120.02" width="78.92" height="1"/><rect class="cls-15" x="243.14" y="125.39" width="112.04" height="1"/><rect class="cls-15" x="249.52" y="130.75" width="86.54" height="1"/><rect class="cls-15" x="255.78" y="136.12" width="90.36" height="1"/><rect class="cls-15" x="264.28" y="141.48" width="61.04" height="1"/><rect class="cls-16" x="239.48" y="169.32" width="35.54" height="1"/><rect class="cls-16" x="243.14" y="163.96" width="86.54" height="1"/><rect class="cls-16" x="249.52" y="158.59" width="112.04" height="1"/><rect class="cls-16" x="255.78" y="153.23" width="61.04" height="1"/><rect class="cls-16" x="264.28" y="147.86" width="73.79" height="1"/><rect class="cls-14" x="231.72" y="119.07" width="1.27" height="1.27"/><path class="cls-14" d="M233,165.85h-1.28v-2.6H233Zm0-6.5h-1.28v-2.6H233Zm0-6.5h-1.28v-2.6H233Zm0-6.5h-1.28v-2.6H233Zm0-6.5h-1.28v-2.6H233Zm0-6.5h-1.28v-2.6H233Zm0-6.5h-1.28v-2.6H233Z"/><rect class="cls-14" x="231.72" y="169.75" width="1.27" height="1.28"/><polygon class="cls-17" points="325.18 270.29 256.51 270.29 256.51 266.39 322.87 266.39 354.81 208.02 358.23 209.9 325.18 270.29"/><path class="cls-18" d="M215.24,146.34a33.19,33.19,0,0,1-4.57,11.71C207,163.7,198.76,172,196.48,172.71c-.92.28-4.19-1.2-7.76-3.07-1.17-.61-2.37-1.27-3.54-1.91-4.11-2.28-7.73-4.48-7.73-4.48L172,155.56a63,63,0,0,1,12.21-27.42c6-7.92,19.57-3.16,24.49.64S216.31,138.54,215.24,146.34Z"/><path class="cls-19" d="M184.93,147.27c-.16,5,3.12,6.86,3.78,7.7s-3.75,5.44-5.73,3.38S184.93,147.27,184.93,147.27Z"/><polygon class="cls-20" points="308.29 397.92 310.72 409.64 294.64 412.41 290.93 398.99 308.29 397.92"/><g id="_Group_" data-name="&lt;Group&gt;"><path class="cls-14" d="M341.56,415.05l1,5.86-51,9.1-1-5.81s45.23-8.59,50.15-9Z"/><path class="cls-21" d="M319.88,408.14a.79.79,0,0,0,.14-.4l3.17,1.22-3.61,5a.89.89,0,0,0,.88,1.39A.87.87,0,0,0,321,415l3.74-5.17a.46.46,0,0,0,.1-.25c6.85,2.59,14,5.24,15.85,5.6-4.92.45-50.15,9-50.15,9l1.61-13.5a1,1,0,0,1,1.19-.84c12,2.34,16.13-2.87,17.26-4.89a1,1,0,0,1,1.21-.43l2.2.85-3.56,4.94a.87.87,0,0,0,.2,1.22.92.92,0,0,0,.68.17.89.89,0,0,0,.56-.37l3.72-5.16a.32.32,0,0,0,.07-.14l2.74,1.06-3.72,5.16a.89.89,0,0,0,.88,1.39.82.82,0,0,0,.55-.37Z"/><path class="cls-14" d="M321,415a.87.87,0,0,1-.55.35.89.89,0,0,1-.88-1.39l3.61-5,1.66.62a.46.46,0,0,1-.1.25Z"/><path class="cls-14" d="M318.44,407.12l1.59.62a.79.79,0,0,1-.14.4l-3.74,5.17a.82.82,0,0,1-.55.37.89.89,0,0,1-.88-1.39Z"/><path class="cls-14" d="M311.91,411.37a.89.89,0,0,1-.56.37.92.92,0,0,1-.68-.17.87.87,0,0,1-.2-1.22l3.56-4.94,1.67.66a.32.32,0,0,1-.07.14Z"/></g><path class="cls-22" d="M220.93,322.52c-10.45.53-24.41,1.27-42.64,2-51,1.95-40.62-47.44-40.62-47.44l48.75-.64s72.48-1.07,87.74,8.68S311.7,397.71,311.7,397.71l-24.28,6.78s-19.67-42.29-31.16-64.81c-4.72-9.26-8.13-16.07-8.42-16.81C247.22,321.21,239.75,321.55,220.93,322.52Z"/><path class="cls-13" d="M188,276.39l-1.55,0-48.75.64s-5.83,27.7,12.67,40.79c18.41-4.45,29.39-23.14,39.05-39.91Z"/><path class="cls-13" d="M256.26,339.68l-4,61-4.39.1v-2.53H230.45v3l-4.8.12-4.72-78.83c18.82-1,26.28-1.31,26.91.35C248.13,323.61,251.54,330.42,256.26,339.68Z"/><polygon class="cls-20" points="247.84 400.81 247.84 411.92 230.45 411.92 230.45 401.24 247.84 400.81"/><polygon class="cls-13" points="247.84 398.27 247.84 400.81 230.45 401.24 230.45 398.27 247.84 398.27"/><g id="_Group_2" data-name="&lt;Group&gt;"><path class="cls-14" d="M277.33,422.85v6H225.5v-5.9s46-.51,51-.09Z"/><path class="cls-23" d="M257.2,412.24a.79.79,0,0,0,.21-.37l2.91,1.75-4.43,4.29a.89.89,0,0,0,.62,1.52.88.88,0,0,0,.6-.25l4.59-4.43a.46.46,0,0,0,.14-.23c6.29,3.76,12.9,7.62,14.62,8.29-4.93-.43-51,.09-51,.09l4-13a1,1,0,0,1,1.32-.62c11.38,4.41,16.38,0,17.85-1.78a1,1,0,0,1,1.27-.21l2,1.23-4.38,4.23a.87.87,0,0,0,0,1.24.92.92,0,0,0,.64.28.89.89,0,0,0,.62-.27l4.57-4.43a.32.32,0,0,0,.09-.12L256,411l-4.57,4.43a.89.89,0,0,0,.62,1.52.82.82,0,0,0,.6-.27Z"/><path class="cls-14" d="M257.11,419.19a.88.88,0,0,1-.6.25.89.89,0,0,1-.62-1.52l4.43-4.29,1.52.9a.46.46,0,0,1-.14.23Z"/><path class="cls-14" d="M256,411l1.45.89a.79.79,0,0,1-.21.37l-4.59,4.43a.82.82,0,0,1-.6.27.89.89,0,0,1-.62-1.52Z"/><path class="cls-14" d="M248.79,414a.89.89,0,0,1-.62.27.92.92,0,0,1-.64-.28.87.87,0,0,1,0-1.24l4.38-4.23,1.52.94a.32.32,0,0,1-.09.12Z"/></g><g id="_Group_3" data-name="&lt;Group&gt;"><path class="cls-19" d="M276.11,262.76H247.35s-43.38-7-51.83-12.19c-3.14-1.93-8.52-7.84-14.08-14.51L201,219.75c3.43,5.44,6.55,9.87,7.8,10.35,3.41,1.29,35.74,19.32,39.48,19.32S269.93,249.11,276.11,262.76Z"/><path class="cls-24" d="M202.37,219.34l-20.92,16.73c-9.48-11.37-19.4-25-19.4-25l29.67-17.9S199.33,211.29,202.37,219.34Z"/></g><path class="cls-25" d="M184.47,178.25,163,169.81s-25.58,3-27.34,64.6c-.34,11.9-.22,77.65,3.4,79.34,14.45,6.73,51.67-37.37,51.67-37.37.74-1.37-.31-15.59,0-17a15.28,15.28,0,0,1-2.22-1c-3.8-2.24-10.9-11.66-17.88-21.84l22.07-17.2c.88,1.38,1.75,2.73,2.59,4C195.9,190.5,184.47,178.25,184.47,178.25Z"/><path class="cls-26" d="M190.75,259.39a15.28,15.28,0,0,1-2.22-1c-3.8-2.24-10.9-11.66-17.88-21.84l10.83-8.44L170.65,212l-19.52-12.76v8.79s8.36,22.74,18.31,40.57c5.4,9.68,14.34,14.43,21.39,16.76A54.76,54.76,0,0,1,190.75,259.39Z"/><path class="cls-27" d="M253.69,255.94s-45.33-18.52-48.42-19.19c-1-.21-4.31-4.81-8.41-11-.86-1.34-3.27-5-4.14-6.38l-22.07,17.2c7,10.18,14.08,19.6,17.88,21.84a15.29,15.29,0,0,0,2.22,1l0-.13,0,.13c13.18,4.94,60.61,7.21,61.53,7.52,1.7,1.32,5.71,1.4,9.31.41a13.48,13.48,0,0,0,4.47-2.06c3.17-2.37,7.9,1,10,2.59,1.39,1.05,4.62,1,5.69-.06C279.37,254.13,253.69,255.94,253.69,255.94Z"/><polygon class="cls-28" points="189.36 168.34 188.72 169.64 187.34 172.43 187.09 172.94 184.47 178.25 163.02 169.81 172 155.56 186.22 166.03 189.36 168.34"/><path class="cls-29" d="M151.12,208.06l22.36,34.36L199,227.74s-7-26.77-13.72-41.5c-4.2-9.15-16.28-13.69-28-6.41C147.07,186.23,147.38,201.21,151.12,208.06Z"/><path class="cls-30" d="M193.29,146.24c-.82-3.73-4.23-7.16-7.31-2.17a9.79,9.79,0,0,0-1.17,4.16c-.55,5.2-6.59,7.48-11.11,7.83a8.69,8.69,0,0,1-2.18-.08s1.14-8.55,3.68-18.86,8.28-20.81,16.58-16.59c0,0,7.64-3.56,12.28,2.35,0,0,7.88-2.82,12,3.51,0,0,11.07,2.09,13.14,9,2.63,8.74-9.61,10.87-13.69,8.39s-7.17-7.17-10-7.08-2.18,4.41-2.6,7.08-4.57-.08-6.33,3.51-2.64,5.6-3.69,5S193.29,146.24,193.29,146.24Z"/><path class="cls-19" d="M191.81,147.15c.31-1.34-.52-3.25-1.69-3.33-1.5-.1-2.19,1.73-2.3,3.34s.34,4,2,3.48c1.25-.43-.14-1.93.31-2.75S191.81,148.59,191.81,147.15Z"/><path class="cls-19" d="M188.72,169.64l-1.38,2.79a10.19,10.19,0,0,1-4.33-8.1S184.32,167.11,188.72,169.64Z"/><path class="cls-5" d="M107.67,219.4c0,.17,0,.24,0,.3s0,.26,0,.37c.05.39.15,1.07.31,2.12,1.16,7.78,5.33,34.44,9.21,59.18s7.46,47.54,7.46,47.54l7.7-1.21-.73-4.64c-1.62-10.34-5.69-36.19-9.34-59.56-1.83-11.69-3.55-22.75-4.82-31-.63-4.1-1.15-7.48-1.52-9.86-.18-1.19-.32-2.13-.41-2.77l-.1-.73,0-.15h0l-2.31.25,2.31-.19V219l-2.31.25,2.31-.19-3.61.3h3.62c0-.21,0-.26,0-.3l-3.61.3h-4.18Z"/><path class="cls-13" d="M178.2,339.44h6.19a1.63,1.63,0,0,1,1.63,1.63v90.66a0,0,0,0,1,0,0h-9.44a0,0,0,0,1,0,0V341.07A1.63,1.63,0,0,1,178.2,339.44Z" transform="translate(362.6 771.16) rotate(180)"/><path class="cls-13" d="M178.2,409.06h6.19a1.63,1.63,0,0,1,1.63,1.63v21a0,0,0,0,1,0,0h-9.44a0,0,0,0,1,0,0v-21A1.63,1.63,0,0,1,178.2,409.06Z" transform="translate(362.6 840.78) rotate(180)"/><path class="cls-5" d="M161.67,340.73h39.26a6.34,6.34,0,0,1,6.34,6.34v1.54a0,0,0,0,1,0,0H155.33a0,0,0,0,1,0,0v-1.54a6.34,6.34,0,0,1,6.34-6.34Z" transform="translate(362.6 689.35) rotate(180)"/><rect class="cls-31" x="123.75" y="322.58" width="115.09" height="18.4" rx="7.4" ry="7.4" transform="translate(362.6 663.55) rotate(-180)"/><circle class="cls-13" cx="137.81" cy="426.2" r="5.53"/><circle class="cls-13" cx="224.78" cy="426.2" r="5.53"/><rect class="cls-5" x="171.8" y="402.02" width="19" height="16.6" transform="translate(362.6 820.65) rotate(180)"/><path class="cls-32" d="M132.29,414.72h98a0,0,0,0,1,0,0v2.06a5.75,5.75,0,0,1-5.75,5.75H138a5.75,5.75,0,0,1-5.75-5.75v-2.06A0,0,0,0,1,132.29,414.72Z" transform="translate(362.6 837.25) rotate(180)"/><path class="cls-33" d="M105.34,225.83l4.16,30.85a8,8,0,1,0,15.92-2.15l-4.16-30.85a8,8,0,1,0-15.92,2.15"/><rect class="cls-34" x="379.57" y="279.48" width="8.45" height="151.19"/><rect class="cls-34" x="252.28" y="279.48" width="8.45" height="151.19"/><rect class="cls-14" x="245.95" y="270.05" width="150.54" height="10.56"/><rect class="cls-16" x="198.94" y="64.57" width="43.53" height="26.83"/><text class="cls-35" transform="translate(208.28 82.95)">&lt;/&gt;</text><rect class="cls-15" x="120.04" y="96.4" width="49.11" height="32.85"/><path class="cls-14" d="M136.29,105.83a8.06,8.06,0,0,0,10.79,11.72l5.15,5.15a.56.56,0,0,0,.79,0l1.45-1.45a.56.56,0,0,0,0-.79l-5.15-5.15a8.06,8.06,0,0,0-13-9.48Zm10.35,9a5.7,5.7,0,1,1,0-8.06A5.71,5.71,0,0,1,146.63,114.88Z"/><rect class="cls-36" x="357.25" y="88.67" width="37.69" height="26.85"/><text class="cls-37" transform="translate(367.47 108.83)">{ }</text></g></g></svg>