<svg xmlns="http://www.w3.org/2000/svg" xmlns:xlink="http://www.w3.org/1999/xlink" viewBox="0 0 500 500"><defs><style>.cls-1,.cls-16,.cls-23,.cls-24,.cls-25,.cls-27,.cls-28,.cls-29,.cls-38,.cls-47,.cls-6{fill:none;}.cls-2{isolation:isolate;}.cls-3{fill:#fecf79;}.cls-4{opacity:0.63;}.cls-5{clip-path:url(#clip-path);}.cls-6{stroke:#fff;}.cls-16,.cls-6{stroke-miterlimit:10;}.cls-7{fill:#ffb94a;}.cls-8{opacity:0.84;}.cls-15,.cls-9{fill:#fff;}.cls-9{opacity:0.45;}.cls-10,.cls-11{fill:#ffde9d;}.cls-11{opacity:0.38;}.cls-11,.cls-19,.cls-22,.cls-29,.cls-30,.cls-41,.cls-43,.cls-47,.cls-48{mix-blend-mode:multiply;}.cls-12,.cls-41{fill:#8b5bce;}.cls-13,.cls-35{fill:#673cb8;}.cls-14{fill:#f2f2f2;}.cls-16,.cls-23,.cls-24,.cls-25,.cls-27,.cls-28,.cls-29{stroke:#fecf79;}.cls-16{stroke-width:2.41px;}.cls-17{fill:#e89b1f;}.cls-18,.cls-19{fill:#11707a;}.cls-20,.cls-43{fill:#1bb5cd;}.cls-21{fill:#9beaea;}.cls-22,.cls-29{opacity:0.66;}.cls-23,.cls-24,.cls-25,.cls-27,.cls-28,.cls-29,.cls-37,.cls-38,.cls-47{stroke-linecap:round;stroke-linejoin:round;}.cls-23,.cls-24,.cls-25,.cls-27,.cls-28,.cls-29{stroke-width:0.94px;}.cls-24{stroke-dasharray:4.06 4.06;}.cls-25{stroke-dasharray:3.57 3.57;}.cls-26{fill:#ccc;}.cls-27{stroke-dasharray:4.06 4.06;}.cls-28{stroke-dasharray:3.23 3.23;}.cls-29{stroke-dasharray:3.75;}.cls-31{fill:#1badbc;}.cls-32{fill:#1c77f6;}.cls-33{fill:url(#Degradado_sin_nombre_9);}.cls-34{fill:url(#Degradado_sin_nombre_9-2);}.cls-35{opacity:0.15;}.cls-36,.cls-37,.cls-48{fill:#f9caaa;}.cls-37,.cls-38{stroke:#f9af7d;stroke-width:0.27px;}.cls-39{fill:#999;}.cls-40{opacity:0.35;}.cls-42{fill:#32d1d7;}.cls-44{fill:#312e70;}.cls-45{fill:#b6fcfc;opacity:0.11;}.cls-46{fill:url(#Degradado_sin_nombre_28);}.cls-47{stroke:#8b5bce;stroke-width:1px;}.cls-48{opacity:0.33;}.cls-49{fill:#3a139b;}.cls-50{fill:url(#Degradado_sin_nombre_28-2);}</style><clipPath id="clip-path"><rect class="cls-1" width="500" height="500"/></clipPath><linearGradient id="Degradado_sin_nombre_9" x1="470.92" y1="107.06" x2="493.97" y2="197.67" gradientTransform="matrix(-1, 0, 0, 1, 772.25, 0)" gradientUnits="userSpaceOnUse"><stop offset="0" stop-color="#fff"/><stop offset="1" stop-color="#d4d8ff"/></linearGradient><linearGradient id="Degradado_sin_nombre_9-2" x1="470.57" y1="108.65" x2="493.6" y2="199.17" xlink:href="#Degradado_sin_nombre_9"/><linearGradient id="Degradado_sin_nombre_28" x1="181.87" y1="151.71" x2="183.72" y2="162.14" gradientTransform="matrix(-0.99, 0.12, 0.12, 0.99, 376.88, -22.69)" gradientUnits="userSpaceOnUse"><stop offset="0" stop-color="#fff"/><stop offset="1" stop-color="#fff" stop-opacity="0"/></linearGradient><linearGradient id="Degradado_sin_nombre_28-2" x1="185.78" y1="151.85" x2="187.62" y2="162.28" xlink:href="#Degradado_sin_nombre_28"/></defs><title>2620033</title><g class="cls-2"><g id="BACKGROUND"><rect class="cls-3" width="500" height="500"/><g class="cls-4"><g class="cls-5"><path class="cls-6" d="M468,183.82c-2.57-.59-3.66-1.56-2.42-2.17s4.33-.62,6.9,0,3.65,1.56,2.42,2.17S470.61,184.41,468,183.82Z"/><path class="cls-6" d="M469,163.55c-2.56-.59-3.62-1.57-2.35-2.18s4.37-.63,6.93,0,3.61,1.57,2.35,2.18S471.56,164.14,469,163.55Z"/><path class="cls-6" d="M446.42,158.36c-2.57-.59-3.63-1.56-2.35-2.18s4.39-.63,7,0,3.62,1.57,2.35,2.18S449,159,446.42,158.36Z"/><path class="cls-6" d="M424.16,153.27c-2.58-.59-3.63-1.56-2.35-2.18s4.4-.64,7,0,3.62,1.56,2.35,2.18S426.74,153.86,424.16,153.27Z"/><path class="cls-6" d="M400.09,147.79c-2.58-.59-3.64-1.56-2.35-2.18s4.42-.64,7-.05,3.63,1.56,2.35,2.18S402.68,148.38,400.09,147.79Z"/><polyline class="cls-6" points="400.09 147.79 394.4 150.53 401.45 157.07 363.55 175.5 376.54 188.06 143.43 308.07"/><polyline class="cls-6" points="468.92 184 445.04 195.8 414.71 196.12 183.85 315.72"/><polyline class="cls-6" points="424.16 153.27 375.19 177.07 389.07 189.53 156.81 309.23"/><polyline class="cls-6" points="446.43 158.36 428.22 167.2 411.37 168 388.63 179.11 399.82 189.31 164.04 310.89"/><line class="cls-6" x1="469" y1="163.55" x2="177.33" y2="312.69"/><path class="cls-6" d="M39,361.38c2.53.76,3.54,1.8,2.27,2.33s-4.36.33-6.88-.43-3.54-1.8-2.26-2.33S36.47,360.62,39,361.38Z"/><path class="cls-6" d="M36.67,381.54c2.52.76,3.5,1.81,2.2,2.33s-4.4.34-6.92-.43-3.5-1.81-2.2-2.33S34.16,380.78,36.67,381.54Z"/><path class="cls-6" d="M58.84,388.23c2.53.76,3.51,1.81,2.2,2.33s-4.42.34-6.94-.42-3.5-1.81-2.2-2.33S56.32,387.47,58.84,388.23Z"/><path class="cls-6" d="M80.71,394.81c2.53.76,3.52,1.8,2.2,2.33s-4.44.34-7-.42-3.51-1.81-2.2-2.33S78.18,394.05,80.71,394.81Z"/><path class="cls-6" d="M104.36,401.9c2.54.76,3.53,1.8,2.2,2.33s-4.46.34-7-.42-3.52-1.8-2.2-2.33S101.82,401.14,104.36,401.9Z"/><polyline class="cls-6" points="104.36 401.9 110.22 399.55 103.63 392.55 142.68 376.72 130.57 363.3 371.23 259.25"/><polyline class="cls-6" points="38.13 361.14 62.75 350.98 93.03 352.69 331.41 248.9"/><polyline class="cls-6" points="80.71 394.81 131.18 374.37 118.17 360.99 357.96 257.2"/><polyline class="cls-6" points="58.84 388.23 77.6 380.64 94.47 380.98 117.9 371.42 107.43 360.5 350.85 255.06"/><line class="cls-6" x1="36.67" y1="381.54" x2="337.72" y2="252.36"/><path class="cls-6" d="M452.65,376.3c-2.57.59-3.66,1.56-2.42,2.17s4.33.62,6.9,0,3.65-1.56,2.42-2.17S455.22,375.72,452.65,376.3Z"/><path class="cls-6" d="M453.61,396.57c-2.56.59-3.62,1.57-2.35,2.18s4.37.63,6.93,0,3.61-1.57,2.35-2.18S456.17,396,453.61,396.57Z"/><path class="cls-6" d="M431,401.76c-2.57.59-3.63,1.56-2.35,2.18s4.39.63,7,0,3.62-1.57,2.35-2.18S433.61,401.17,431,401.76Z"/><path class="cls-6" d="M408.78,406.85c-2.58.59-3.63,1.56-2.35,2.18s4.4.64,7,0,3.62-1.56,2.35-2.18S411.35,406.26,408.78,406.85Z"/><path class="cls-6" d="M384.71,412.33c-2.58.59-3.64,1.56-2.35,2.18s4.42.64,7,.05,3.63-1.56,2.35-2.18S387.29,411.74,384.71,412.33Z"/><polyline class="cls-6" points="384.7 412.33 379.01 409.59 386.06 403.05 348.17 384.63 361.15 372.06 128.04 252.05"/><polyline class="cls-6" points="453.53 376.13 429.65 364.32 399.32 364 168.46 244.4"/><polyline class="cls-6" points="408.78 406.85 359.8 383.06 373.68 370.59 141.42 250.89"/><polyline class="cls-6" points="431.04 401.76 412.83 392.93 395.98 392.12 373.25 381.01 384.43 370.82 148.65 249.23"/><line class="cls-6" x1="453.61" y1="396.57" x2="161.94" y2="247.43"/><path class="cls-6" d="M44.76,202.58c2.53-.76,3.54-1.8,2.27-2.33s-4.36-.33-6.88.43-3.54,1.8-2.26,2.33S42.23,203.35,44.76,202.58Z"/><path class="cls-6" d="M42.44,182.43c2.52-.76,3.5-1.81,2.2-2.33s-4.4-.34-6.92.43-3.5,1.81-2.2,2.33S39.92,183.19,42.44,182.43Z"/><path class="cls-6" d="M64.61,175.73c2.53-.76,3.51-1.81,2.2-2.33s-4.42-.34-6.94.42-3.5,1.81-2.2,2.33S62.08,176.49,64.61,175.73Z"/><path class="cls-6" d="M86.48,169.15c2.53-.76,3.52-1.8,2.2-2.33s-4.44-.34-7,.42-3.51,1.81-2.2,2.33S83.94,169.91,86.48,169.15Z"/><path class="cls-6" d="M110.12,162.07c2.54-.76,3.53-1.8,2.2-2.33s-4.46-.34-7,.42-3.52,1.8-2.2,2.33S107.58,162.83,110.12,162.07Z"/><polyline class="cls-6" points="110.12 162.07 115.99 164.42 109.39 171.42 148.44 187.25 136.33 200.66 376.99 304.71"/><polyline class="cls-6" points="43.89 202.82 68.51 212.99 98.79 211.27 337.18 315.06"/><polyline class="cls-6" points="86.47 169.15 136.94 189.6 123.93 202.97 363.72 306.77"/><polyline class="cls-6" points="64.61 175.73 83.36 183.32 100.23 182.99 123.66 192.54 113.19 203.47 356.62 308.91"/><line class="cls-6" x1="42.44" y1="182.43" x2="343.48" y2="311.6"/></g></g></g><g id="OBJECTS"><path class="cls-7" d="M42.42,282.2,232.1,192.86a26.44,26.44,0,0,1,25.92-.07l199.61,91s1.51,16.94-2.74,19.67L264.05,414.49a19.32,19.32,0,0,1-19.27.09L47,301C42.91,298.69,42.42,282.2,42.42,282.2Z"/><g class="cls-8"><path class="cls-9" d="M289,395.26l-19.71,12.12-5,3A20.32,20.32,0,0,1,246.84,412c-.48-.17-.94-.39-1.42-.58l-1.36-.69-2.54-1.39-5.09-2.75c-3.38-1.86-6.75-3.74-10-5.74-6.6-4-13.14-8.1-19.44-12.61l.14-.24c7.07,3.17,13.91,6.74,20.7,10.41,3.39,1.83,6.71,3.79,10,5.77l4.94,3,2.48,1.49,1.19.67c.41.19.82.4,1.24.57a18.3,18.3,0,0,0,10.75,1,18.71,18.71,0,0,0,5.17-1.9l5.05-2.81L288.91,395Z"/></g><g class="cls-8"><path class="cls-9" d="M439.41,307.75,425,316.81l-14.52,8.94c-4.85,3-9.57,6.14-14.59,8.82A166.55,166.55,0,0,1,380.49,342l-.14-.24a166.55,166.55,0,0,1,14.09-9.67c4.81-3,9.9-5.58,14.87-8.33l14.94-8.21,15-8.09Z"/></g><path class="cls-10" d="M45.16,276.59,232.1,179.85a26.44,26.44,0,0,1,25.92-.07L454.8,280.49a5.71,5.71,0,0,1,.09,9.92L264.05,401.48a19.32,19.32,0,0,1-19.27.09L45.15,287.06A6,6,0,0,1,45.16,276.59Z"/><path class="cls-11" d="M382.57,279l-124.85-66A10.91,10.91,0,0,0,247,213l-77.12,39.91a2.48,2.48,0,0,0,0,4.32l23.22,13.21c-9.21,5.15-73,55-27.61,79.91,49,26.92,122.27-21.21,126.16-23.84l4.25,2.42a8,8,0,0,0,7.95,0L382.61,283A2.36,2.36,0,0,0,382.57,279Z"/><path class="cls-12" d="M388.42,287.76a2.07,2.07,0,0,1-2.06,2.06H384.3a2.07,2.07,0,0,1-2.06-2.06l-9.16-80.62a2,2,0,0,1,.32-1.09,2.06,2.06,0,0,1,1.74-1h4.12a2.07,2.07,0,0,1,2.06,2.06Z"/><path class="cls-12" d="M305,243.08l3.9,86.64a2.07,2.07,0,0,1-2.06,2.06h-2.06a2.07,2.07,0,0,1-2.06-2.06l-6-86.64A2.07,2.07,0,0,1,298.8,241h4.12A2.07,2.07,0,0,1,305,243.08Z"/><path class="cls-13" d="M385.35,289.82H384.3a2.07,2.07,0,0,1-2.06-2.06l-9.16-80.62a2,2,0,0,1,.32-1.09,6.15,6.15,0,0,1,2.3,4.39Z"/><path class="cls-13" d="M300.82,241l4.46,90.76h-.53a2.07,2.07,0,0,1-2.06-2.06l-6-86.64A2.07,2.07,0,0,1,298.8,241Z"/><path class="cls-12" d="M180.65,180.83l3.9,86.64a2.07,2.07,0,0,1-2.06,2.06h-2.06a2.07,2.07,0,0,1-2.06-2.06l-6-86.64a2.07,2.07,0,0,1,2.06-2.06h4.12A2.07,2.07,0,0,1,180.65,180.83Z"/><path class="cls-13" d="M176.49,178.76,181,269.52h-.53a2.07,2.07,0,0,1-2.06-2.06l-6-86.64a2.07,2.07,0,0,1,2.06-2.06Z"/><path class="cls-13" d="M173,181.22,169.34,175l83.88-39.64,131,65.2-2.9,6.75L304,252a8,8,0,0,1-7.95,0Z"/><path class="cls-14" d="M170.39,171.89,247.51,132a10.91,10.91,0,0,1,10.69,0l124.85,66a2.36,2.36,0,0,1,0,4.09l-78.73,45.82a8,8,0,0,1-7.95,0l-126-71.7A2.48,2.48,0,0,1,170.39,171.89Z"/><g class="cls-8"><path class="cls-15" d="M229.46,145.39c3.67-2.15,7.38-4.24,11.06-6.36l5.56-3.12,2.78-1.56a8.27,8.27,0,0,1,3.43-1.14,8.35,8.35,0,0,1,3.66.44c.29.11.59.23.86.36l.74.35L259,135q2.88,1.37,5.64,3a93.85,93.85,0,0,1,10.68,7.08l-.13.25a94,94,0,0,1-11.88-4.85q-2.88-1.38-5.64-3l-1.38-.81-.67-.4a5.49,5.49,0,0,0-.59-.31,6,6,0,0,0-2.59-.52,6.09,6.09,0,0,0-2.62.69L247,137.52l-5.77,2.75c-3.87,1.79-7.71,3.61-11.59,5.37Z"/></g><g class="cls-8"><path class="cls-15" d="M201.92,190l-7.09-3.65c-2.36-1.23-4.73-2.43-7.07-3.69l-14.11-7.44-2-1.06,2.06-1.18c1.71-1,3.4-2,5.14-2.87s3.51-1.76,5.3-2.57,3.59-1.6,5.42-2.34,3.68-1.44,5.58-2l.13.25c-1.58,1.21-3.23,2.31-4.88,3.38s-3.34,2.09-5,3.07-3.41,1.95-5.16,2.84-3.54,1.71-5.32,2.54l0-2.24,13.61,8.33c2.28,1.37,4.52,2.8,6.78,4.2l6.76,4.23Z"/></g><g class="cls-8"><path class="cls-15" d="M320.58,234.26c-3.77,2.46-7.58,4.85-11.37,7.27l-5.72,3.57a6.78,6.78,0,0,1-1.71.87,5.21,5.21,0,0,1-2.06.21,5.27,5.27,0,0,1-2-.61l-1.49-.79c-4-2.12-8.06-4-11.86-6.43a104.84,104.84,0,0,1-11.1-7.77l.14-.24a104.84,104.84,0,0,1,12.35,5.57c4,2,7.74,4.58,11.58,6.91l1.44.88a3.17,3.17,0,0,0,1.18.45,3.23,3.23,0,0,0,1.28,0,5,5,0,0,0,1.32-.59l5.93-3.21c4-2.1,7.94-4.23,11.94-6.3Z"/></g><g class="cls-8"><path class="cls-15" d="M366.64,193.36c2.18.9,4.33,1.87,6.49,2.8s4.3,1.93,6.43,2.92l1.75.82L379.6,201q-1.48,1-2.94,2a24,24,0,0,1-3.06,1.81c-1.07.51-2.16,1-3.28,1.43a21.94,21.94,0,0,1-3.5,1.05l-.14-.24a22,22,0,0,1,2.65-2.52c.92-.77,1.89-1.47,2.86-2.15a24,24,0,0,1,3.08-1.77q1.62-.76,3.21-1.56l0,2q-3-1.8-6-3.67c-2-1.26-4-2.49-6-3.79Z"/></g><path class="cls-10" d="M316.26,214l0-4.78c3.13-1.67,18.21-.32,18.59-.1l-.06,4.74a.27.27,0,0,1,0,.47l-9,5.23a.91.91,0,0,1-.91,0l-8.61-5.06A.28.28,0,0,1,316.26,214Z"/><path class="cls-3" d="M316.26,209.22l8.81-4.56a1.25,1.25,0,0,1,1.22,0l8.47,4.41a.27.27,0,0,1,0,.47l-9,5.23a.91.91,0,0,1-.91,0l-8.61-5.06A.28.28,0,0,1,316.26,209.22Z"/><path class="cls-16" d="M240.21,149.67a3,3,0,0,1,4-.87c2.53,1.23,1.48,8.18-4,7"/><ellipse class="cls-17" cx="235.94" cy="145.1" rx="6.54" ry="1.02"/><ellipse class="cls-12" cx="236" cy="145.73" rx="5.75" ry="1.02"/><path class="cls-3" d="M229.38,145.1l1.84,14.46a.73.73,0,0,0,.53.6,16.36,16.36,0,0,0,8.45,0,.73.73,0,0,0,.53-.61l1.75-14.45A31.8,31.8,0,0,1,229.38,145.1Z"/><path class="cls-18" d="M307.75,212.75l-.37-.21-.62-.37a1.19,1.19,0,0,1-.55-.73l-.73-2.84,1.1.23.89.19,1,3.15A.5.5,0,0,1,307.75,212.75Z"/><path class="cls-19" d="M307.38,212.54l-.62-.37a1.19,1.19,0,0,1-.55-.73l-.73-2.84,1.1.23c.06.38.06.78.12,1.12a16.27,16.27,0,0,0,.54,2.13A4.27,4.27,0,0,1,307.38,212.54Z"/><path class="cls-18" d="M238.82,169.82a2.12,2.12,0,0,1,2.43-.24l18.23,10.32q11.93,6.78,23.88,13.61l17.54,10.07c1.78,1,5.22,1.71,7.11,2.79.84.48.62,2.71-.06,3.4q-7.61,7.87-15.21,15.68a2.29,2.29,0,0,1-2.82.36q-33.52-20.17-66.92-40c-.81-.48-1-2.91-.27-3.52C228.06,177.72,233.48,174.43,238.82,169.82Z"/><path class="cls-20" d="M238.84,168.34a2.12,2.12,0,0,1,2.43-.24l18.23,10.32q11.93,6.78,23.88,13.61l17.54,10.07,6.73,3.87a1.49,1.49,0,0,1,.32,2.33q-7.61,7.87-15.21,15.68a2.29,2.29,0,0,1-2.82.36q-33.52-20.17-66.92-40a1.38,1.38,0,0,1-.19-2.23Q230.83,175.25,238.84,168.34Zm15.58,33.47,3.45,2.06,10.87,6.49c.42.25.56.25.83,0l1.79-1.74c.29-.28.26-.37-.18-.63l-15.77-9.36-12.77-7.55c-.42-.25-.55-.25-.83,0L240,192.72c-.29.26-.27.35.17.61Zm34.38,15.73h0l4.42,2.64c.35.21.48.21.7,0l1.85-1.9c.24-.24.21-.33-.16-.55l-2.85-1.7-5.92-3.51c-.36-.21-.5-.21-.73,0l-1.83,1.83c-.27.27-.24.35.17.6Zm-57.41-34,4.08,2.39c.38.22.51.22.76,0l1.9-1.68c.24-.21.21-.31-.14-.52L229.84,179c-.38-.22-.51-.22-.76,0l-1.9,1.63c-.26.23-.24.31.15.54Zm4.74-5.42L233,176.33c-.38-.22-.52-.22-.78,0l-1.88,1.62c-.27.23-.24.32.17.56l2.68,1.55,3.69,2.15c.35.21.47.2.71,0l1.9-1.67c.26-.23.23-.32-.15-.55Zm57.16,37.23,2.93,1.74c.37.22.48.21.72,0l1.83-1.88c.24-.25.21-.35-.16-.57l-5.77-3.4c-.4-.23-.54-.23-.8,0l-1.81,1.82c-.24.24-.21.35.16.57Zm-5.83,6.24,2.7,1.63c.39.24.52.23.77,0l1.84-1.88c.22-.23.19-.33-.15-.54l-5.42-3.24c-.35-.21-.48-.2-.71,0l-1.86,1.87c-.23.24-.2.35.18.57ZM229,183.09l-2.36-1.39c-.32-.19-.49-.19-.7,0L224,183.36c-.24.2-.2.31.15.52l4.65,2.75c.34.2.5.2.72,0l1.94-1.69c.23-.2.2-.3-.14-.5Zm9.34-8.16L236,173.6c-.32-.18-.48-.19-.69,0l-1.95,1.68c-.21.19-.18.3.13.48l4.71,2.72c.29.17.44.17.64,0l2-1.73c.21-.18.17-.28-.14-.46Zm61.53,34.66h0l2.33,1.36c.36.21.47.2.69,0l1.81-1.87c.28-.29.25-.37-.17-.61L300,205.81c-.38-.22-.53-.22-.78,0l-1.82,1.85c-.24.24-.21.34.17.56Zm-20,5.55,1-1c.17-.17.14-.31-.13-.47l-3-1.8c-.29-.17-.46-.17-.64,0l-1.94,1.91c-.18.18-.14.31.14.48l3,1.78c.33.2.49.18.71,0Zm-4.72-2.83h0l1-1c.17-.17.14-.31-.12-.46l-3-1.8c-.28-.17-.47-.16-.65,0L270.41,211c-.17.16-.13.31.13.47l3,1.81c.29.17.46.16.65,0Zm.94-9h0l.92-.89c.24-.23.21-.35-.15-.56L274,200.18c-.35-.21-.51-.21-.74,0L271.39,202c-.24.23-.21.33.17.56l2.92,1.72c.28.17.46.17.64,0Zm-44.63-17-1,.86c-.21.19-.18.3.14.49l3,1.75c.28.17.47.17.65,0l2-1.72c.23-.2.19-.32-.16-.53l-2.9-1.7c-.33-.19-.47-.19-.69,0Zm16.68,7.08,1.45.86c.34.2.5.2.74,0l1.9-1.74c.21-.19.17-.32-.14-.5l-2.92-1.71c-.35-.2-.5-.2-.74,0l-1.91,1.73c-.21.19-.17.31.14.5Zm2.43-14.2h0l1-.89c.21-.19.17-.31-.14-.49l-2.93-1.67c-.3-.17-.47-.17-.67,0l-2,1.75c-.19.17-.16.28.13.45l3,1.72c.29.17.44.16.64,0Zm16.77,12.39-1.47-.85c-.32-.19-.47-.19-.69,0l-1.92,1.8c-.2.19-.16.3.14.48l3,1.73c.26.15.47.16.63,0q1-.93,2-1.87c.18-.18.13-.29-.16-.46Zm17.27,26.33.9-.9c.27-.27.25-.36-.16-.6l-2.85-1.7c-.36-.21-.51-.21-.74,0l-1.86,1.85c-.22.22-.19.34.17.56l2.91,1.75c.32.19.48.18.69,0Zm-44.68-26.6h0l1-.89c.18-.17.16-.28-.11-.44l-3-1.77c-.28-.17-.47-.16-.65,0l-2,1.74c-.2.18-.16.3.13.48l3,1.75c.32.19.47.19.69,0Zm18-5.14-1.47-.85c-.31-.18-.47-.18-.67,0l-2,1.79c-.19.17-.15.3.13.46l3,1.74c.27.16.45.16.62,0l2-1.83c.17-.16.11-.3-.14-.44Zm-.7,6.1,1-.89c.23-.21.2-.32-.16-.53l-2.84-1.65c-.37-.21-.53-.22-.76,0l-1.87,1.71c-.25.23-.23.34.14.57l2.92,1.71c.28.17.43.16.62,0Zm-17.19-8.21h0l1.5.88c.23.14.45.17.61,0q1-.9,2-1.82c.14-.13.1-.28-.12-.41l-3-1.75c-.28-.16-.46-.16-.65,0l-2,1.74c-.2.17-.16.29.15.47Zm46,18.42-1.47-.86c-.32-.19-.48-.19-.69,0l-1.9,1.87c-.19.19-.15.32.14.49l2.95,1.73c.32.19.49.19.69,0l1.9-1.89c.19-.19.15-.31-.15-.49Zm-34-20.6h0l1.47.84c.35.2.48.2.71,0l1.92-1.75c.21-.19.17-.31-.13-.49l-2.9-1.66c-.33-.19-.49-.19-.71,0l-2,1.78c-.16.14-.12.26.11.39ZM262,195l1-.9c.19-.18.16-.31-.13-.48l-3-1.73c-.29-.17-.46-.16-.65,0l-2,1.82c-.18.17-.15.29.13.45l3,1.76c.31.18.46.17.66,0Zm-20.75-9.36h0l-1.5-.88c-.29-.17-.47-.17-.65,0l-2,1.76c-.18.16-.14.29.14.46l3,1.75c.31.18.46.18.67,0l2-1.76c.19-.17.16-.28-.13-.45Zm48.95,25.94,1-1c.18-.19.16-.31-.12-.48l-3-1.77c-.28-.16-.45-.15-.64,0l-1.91,1.91c-.19.19-.16.31.13.48l3,1.78c.29.17.44.16.63,0Zm-22.57-13.29-1,.93c-.19.18-.17.28.11.45l3,1.77c.33.19.46.18.68,0l1.9-1.82c.2-.19.17-.31-.12-.49l-3-1.75c-.27-.15-.44-.15-.62,0Zm-29.5-24.45h0l1.44.82c.35.2.48.2.71,0l1.94-1.7c.21-.19.18-.29-.14-.48l-2.9-1.65c-.31-.18-.49-.18-.7,0l-1.95,1.69c-.23.2-.2.29.15.49Zm54.92,36.52,1.53.9c.24.15.45.14.6,0l2-2c.15-.16.1-.3-.14-.45l-3-1.75c-.3-.17-.43-.17-.63,0-.65.65-1.29,1.31-1.95,2-.17.17-.11.29.13.43ZM249.5,189.59h0l1.5.88c.23.14.43.17.6,0l2-1.82c.19-.17.15-.3-.16-.48l-2.92-1.7c-.33-.19-.48-.19-.69,0l-1.94,1.76c-.22.2-.2.27.12.47Zm-5.35-5h0l-1,.86c-.23.2-.21.29.11.48l3,1.75a.45.45,0,0,0,.58,0l2-1.84c.15-.13.11-.27-.11-.39l-3.05-1.77c-.27-.16-.44-.15-.62,0Zm12.79,12.09-1,.9c-.23.22-.21.31.14.51l2.93,1.73c.32.19.47.19.69,0l1.93-1.81c.19-.18.16-.3-.13-.47l-3-1.75c-.31-.18-.45-.17-.66,0Zm13.94-4h0l1.44.83c.38.22.48.22.72,0l1.88-1.8c.22-.21.19-.33-.16-.53l-2.86-1.63c-.35-.2-.51-.2-.74,0l-1.9,1.78c-.2.19-.16.33.14.5Zm-17.57-9.21-1.52-.88a.47.47,0,0,0-.6,0l-2,1.8c-.18.16-.15.28.13.44l3,1.74c.29.17.45.17.64,0l2-1.8c.18-.17.15-.27-.13-.43Zm15.62,10.9-1,.91c-.2.19-.17.3.14.48l3,1.73c.29.17.44.16.63,0l2-1.87c.18-.17.15-.28-.13-.44l-3-1.73c-.3-.17-.44-.17-.63,0Zm-5.33,3.44h0l1.5.88a.46.46,0,0,0,.62,0l2-1.86c.18-.17.15-.3-.14-.47l-3-1.75a.47.47,0,0,0-.62,0L262,196.49c-.21.19-.17.3.16.5Zm26,5.75h0l1.52.89a.43.43,0,0,0,.59,0l1.95-2c.17-.18.14-.29-.14-.46l-3-1.72c-.3-.17-.47-.16-.67,0l-1.9,1.89c-.2.2-.16.31.15.49Zm-8.84,2.48,1-1c.19-.19.15-.32-.14-.49l-3-1.73c-.3-.18-.47-.17-.66,0l-1.93,1.87c-.2.19-.18.29.12.47l3,1.77c.3.17.44.17.64,0Zm3.52-7.49-1,1c-.18.18-.16.28.12.45l3,1.76a.44.44,0,0,0,.59,0l1.95-1.93c.17-.17.14-.3-.13-.46l-3-1.73c-.29-.17-.44-.16-.63,0Zm-38.38-22.06,1-.85c.22-.2.19-.3-.14-.5l-2.9-1.65c-.31-.17-.47-.17-.67,0l-2,1.73c-.19.16-.16.27.11.43l3,1.73c.28.16.43.15.61,0Zm18.69,10.72,1-.92c.18-.17.15-.28-.12-.44l-3-1.71c-.29-.16-.45-.15-.64,0l-2,1.8c-.19.17-.16.28.11.44l3,1.74c.28.16.42.15.61,0Zm10.31,5.92-1,.94c-.2.19-.17.29.12.46l3,1.74c.28.16.45.16.64,0l1.91-1.85c.2-.19.16-.32-.13-.49l-3-1.71c-.29-.16-.45-.16-.64,0Zm4.65,2.72h0l-1,.93c-.19.18-.16.29.13.47l3,1.74c.29.17.44.16.63,0l1.92-1.88c.19-.19.15-.31-.15-.49l-2.94-1.69c-.31-.18-.48-.17-.69,0Zm11.2,9.34-1.5-.87c-.28-.16-.44-.16-.61,0l-1.93,1.92c-.18.18-.14.31.14.48l3,1.75c.31.18.45.18.65,0l1.91-1.92c.19-.19.15-.3-.14-.47Zm6.64,1,1-1c.17-.18.14-.3-.13-.46l-3-1.74c-.28-.16-.44-.15-.61,0l-2,2c-.16.16-.11.3.13.44l3,1.76c.28.16.42.15.61,0Zm-16-6.43-1.52-.89c-.23-.14-.44-.16-.6,0l-2,1.92c-.16.15-.1.3.14.44l3,1.77c.28.16.42.16.61,0l1.94-1.9c.19-.19.16-.29-.14-.46Zm-40.59-21.65-1,.89c-.18.16-.15.27.13.43l3,1.73c.27.16.44.16.62,0l2-1.77c.19-.17.15-.28-.14-.45l-3-1.7c-.3-.17-.43-.17-.63,0Zm7.79,2.68-1.52-.88a.48.48,0,0,0-.6,0l-2,1.79c-.16.15-.13.29.14.44l3,1.73c.28.16.43.16.62,0l2-1.78c.19-.18.16-.28-.14-.45Zm-5.22,9.81h0l1.53.9c.29.17.46.17.64,0l2-1.79c.18-.16.14-.29-.12-.44l-3-1.77a.47.47,0,0,0-.6,0l-2,1.79c-.18.16-.15.28.12.44ZM256,196.19l1-.93c.15-.14.16-.28-.09-.43l-3-1.78c-.31-.18-.46-.17-.66,0l-1.95,1.8c-.19.17-.16.29.13.46l3,1.76c.29.17.45.17.64,0Zm11,8.37,1.51.89c.3.18.47.17.66,0l1.93-1.86c.17-.17.14-.3-.12-.46l-3-1.79a.47.47,0,0,0-.61,0l-2,1.9c-.15.14-.12.29.14.44ZM281.16,213l1.43.85c.37.22.49.22.73,0l1.88-1.88c.2-.21.17-.32-.16-.51l-3-1.75c-.29-.17-.46-.17-.64,0l-1.92,1.89c-.2.2-.16.32.16.51Zm-6.88-13.59h0l1.5.88c.28.16.43.16.62,0l2-1.9c.16-.15.11-.29-.14-.44l-3-1.76c-.25-.15-.43-.14-.59,0l-2,1.89c-.19.18-.15.28.16.46Zm26.57,13.65,1-1c.19-.2.16-.3-.14-.48l-3-1.74c-.29-.17-.45-.17-.63,0l-1.91,1.94c-.19.2-.16.31.15.5l3,1.74c.31.18.45.18.65,0Zm-24.42-2.88,1.45.86c.33.2.49.19.71,0l1.87-1.84c.21-.21.18-.34-.14-.53l-2.93-1.73c-.33-.19-.48-.19-.68,0l-1.91,1.86c-.21.2-.17.31.16.51ZM271.06,205h0l-1,.92c-.23.22-.19.33.16.54l2.88,1.71c.38.23.5.22.75,0l1.84-1.79c.25-.25.22-.34-.18-.58l-2.93-1.73c-.25-.15-.43-.15-.6,0Zm-6.3-5.58-1.5-.88c-.29-.17-.46-.17-.64,0l-2,1.84c-.19.18-.15.3.13.47l3,1.77c.31.18.46.18.66,0l1.94-1.84c.19-.18.15-.3-.13-.47Zm-1.47-8.31,1-.92c.2-.19.17-.3-.12-.47l-3-1.73c-.27-.16-.43-.15-.61,0l-2,1.82c-.19.17-.16.29.14.46l3,1.73c.3.17.46.17.66,0Zm2.28-3.37h0l-1,.93c-.15.14-.14.27.1.41l3.08,1.78a.44.44,0,0,0,.57,0l2-1.87c.17-.17.14-.29-.13-.45l-3-1.71c-.28-.16-.43-.15-.61,0Zm-5.6-3.23h0l.93-.86c.22-.21.19-.33-.16-.53l-2.88-1.65c-.32-.18-.48-.18-.69,0l-1.91,1.74c-.26.24-.24.3.16.53l2.86,1.65c.35.2.51.2.74,0Zm21.78,22h0l-1,.94c-.22.21-.19.32.15.53l2.93,1.73c.33.19.45.19.66,0l1.92-1.91c.19-.19.15-.31-.13-.48l-3-1.75c-.3-.18-.46-.17-.66,0Zm-18.83-24.94-1.52-.86c-.27-.15-.43-.15-.62,0l-.76.69c-.15.14-.12.28.11.41l3.06,1.75a.45.45,0,0,0,.57,0l.76-.7c.19-.18.16-.28-.14-.45Zm28,16-1.5-.86c-.28-.16-.43-.16-.62,0s-.5.5-.76.75-.09.28.13.41l3,1.74c.27.16.47.15.65,0l.71-.71c.18-.19.15-.31-.13-.47Zm-48.43-27.62-1.52-.86a.47.47,0,0,0-.6,0l-.75.65c-.19.17-.16.29.14.46l2.93,1.66c.3.17.46.17.67,0l.7-.61c.23-.21.21-.29-.14-.49Zm14.47,10,1.52.86c.26.15.45.14.62,0l.74-.68c.19-.18.16-.28-.13-.45l-3-1.69c-.28-.16-.44-.15-.63,0l-.71.64c-.21.19-.17.31.14.49Zm43.33,23-1.5-.86c-.3-.17-.42-.16-.61,0l-.74.75c-.17.18-.13.3.14.46l3,1.73a.45.45,0,0,0,.62,0l.7-.72c.2-.21.17-.31-.14-.49Zm-5.9-1.49,1.44.83c.34.2.5.19.72,0l.67-.68c.19-.2.17-.3-.12-.47l-3-1.72c-.29-.17-.45-.16-.63,0l-.71.71c-.18.19-.15.32.15.49Zm-45.49-27.9h0l-1.51-.86a.45.45,0,0,0-.59,0l-.76.68c-.18.16-.15.28.12.43l3,1.69c.28.16.45.15.64,0l.73-.65c.2-.18.16-.28-.15-.46ZM305,205.8h0l-1.52-.88a.44.44,0,0,0-.59,0l-.75.77c-.15.15-.09.3.13.43l3,1.77a.43.43,0,0,0,.57,0l.74-.76c.19-.2.16-.29-.15-.47Zm-22.29-10.94,1.5.86a.46.46,0,0,0,.6,0l.77-.75c.16-.15.12-.29-.13-.43l-3-1.71c-.3-.17-.45-.16-.66,0l-.69.67c-.19.19-.15.31.15.49ZM279.24,191h0l-1.49-.85c-.28-.16-.42-.15-.61,0l-.75.72c-.16.15-.11.29.13.43l3,1.73a.47.47,0,0,0,.62,0l.73-.71c.18-.18.14-.3-.15-.46Zm-4.65-2.66-1.49-.85c-.29-.16-.46-.16-.64,0l-.73.69c-.16.16-.12.3.13.45l3,1.73a.46.46,0,0,0,.6,0l.73-.7c.2-.2.17-.3-.14-.48Zm-22.27-10.86,1.49.85c.27.15.44.15.62,0s.51-.45.76-.69.15-.27-.14-.43l-3-1.69c-.27-.15-.43-.15-.62,0l-.73.65c-.2.19-.16.3.15.48Zm17.59,8.19h0l-1.49-.85c-.29-.16-.43-.16-.61,0s-.51.47-.75.7-.12.29.14.44l3,1.69c.29.17.47.16.67,0l.72-.68c.19-.18.15-.29-.13-.46Z"/><path class="cls-21" d="M254.41,201.82l-14.27-8.49c-.44-.26-.46-.35-.17-.61l1.82-1.63c.28-.25.4-.25.83,0l12.77,7.55L271.16,208c.44.26.47.35.18.63l-1.79,1.74c-.27.26-.41.27-.83,0l-10.87-6.49Z"/><path class="cls-21" d="M288.8,217.55,284.46,215c-.42-.25-.44-.33-.17-.6l1.83-1.83c.23-.23.37-.23.73,0l5.92,3.51,2.85,1.7c.36.22.39.31.16.55l-1.85,1.9c-.22.23-.35.23-.7,0l-4.42-2.64Z"/><path class="cls-21" d="M231.38,183.57l-4.05-2.38c-.39-.23-.42-.32-.15-.54l1.9-1.63c.25-.21.38-.21.76,0l8.14,4.75c.35.21.38.31.14.52l-1.9,1.68c-.25.22-.38.21-.76,0Z"/><path class="cls-21" d="M236.13,178.15l3.18,1.84c.38.22.41.32.15.55l-1.9,1.67c-.23.2-.35.21-.71,0l-3.69-2.15-2.68-1.55c-.41-.24-.44-.33-.17-.56l1.88-1.62c.26-.22.4-.22.78,0Z"/><path class="cls-21" d="M293.29,215.38l-2.9-1.72c-.37-.22-.4-.33-.16-.57l1.81-1.82c.26-.26.4-.27.8,0l5.77,3.4c.37.22.4.32.16.57l-1.83,1.88c-.24.24-.35.25-.72,0Z"/><path class="cls-21" d="M287.46,221.62,284.82,220c-.38-.23-.41-.34-.18-.57l1.86-1.87c.22-.22.36-.23.71,0l5.42,3.24c.34.2.37.31.15.54l-1.84,1.88c-.25.26-.38.26-.77,0Z"/><path class="cls-21" d="M229,183.09l2.31,1.36c.34.2.37.3.14.5l-1.94,1.69c-.22.19-.38.19-.72,0l-4.65-2.75c-.36-.21-.39-.32-.15-.52l1.95-1.67c.21-.18.38-.18.7,0Z"/><path class="cls-21" d="M238.37,174.93l2.35,1.35c.32.18.35.28.14.46l-2,1.73c-.2.17-.35.17-.64,0l-4.71-2.72c-.31-.18-.34-.3-.13-.48l1.95-1.68c.21-.18.37-.18.69,0Z"/><path class="cls-21" d="M299.9,209.59l-2.3-1.34c-.38-.22-.41-.32-.17-.56l1.82-1.85c.25-.25.4-.25.78,0l4.55,2.64c.43.25.45.33.17.61l-1.81,1.87c-.23.23-.33.24-.69,0l-2.33-1.36Z"/><path class="cls-21" d="M279.88,215.14l-.92.91c-.22.21-.38.23-.71,0l-3-1.78c-.29-.17-.32-.3-.14-.48l1.94-1.91c.19-.18.35-.19.64,0l3,1.8c.26.16.3.3.13.47Z"/><path class="cls-21" d="M275.16,212.31l-1,.93c-.19.18-.36.19-.65,0l-3-1.81c-.26-.15-.3-.31-.13-.47l1.95-1.89c.18-.17.37-.17.65,0l3,1.8c.26.16.29.29.12.46l-1,1Z"/><path class="cls-21" d="M276.1,203.31l-1,.94c-.19.18-.36.17-.64,0l-2.92-1.72c-.38-.22-.41-.32-.17-.56l1.86-1.79c.23-.22.38-.22.74,0l2.87,1.68c.36.21.39.33.15.56l-.92.89Z"/><path class="cls-21" d="M231.47,186.35l1-.86c.22-.19.36-.19.69,0l2.9,1.7c.35.21.38.33.16.53l-2,1.72c-.19.16-.37.16-.65,0l-3-1.75c-.32-.19-.35-.3-.14-.49Z"/><path class="cls-21" d="M248.15,193.43l-1.48-.87c-.31-.19-.34-.31-.14-.5l1.91-1.73c.24-.21.39-.22.74,0L252.1,192c.31.18.34.31.14.5l-1.9,1.74c-.23.21-.39.21-.74,0Z"/><path class="cls-21" d="M250.58,179.23l-1,.86c-.2.17-.35.18-.64,0l-3-1.72c-.29-.17-.32-.28-.13-.45l2-1.75c.2-.18.37-.18.67,0l2.93,1.67c.31.18.34.3.14.49l-1,.89Z"/><path class="cls-21" d="M267.35,191.62l1.47.85c.29.17.35.29.16.46q-1,.94-2,1.87c-.16.15-.37.14-.63,0l-3-1.73c-.3-.18-.34-.29-.14-.48l1.92-1.8c.21-.2.36-.2.69,0Z"/><path class="cls-21" d="M284.62,217.95l-.95.95c-.21.2-.37.21-.69,0l-2.91-1.75c-.35-.21-.39-.33-.17-.56l1.86-1.85c.23-.22.38-.23.74,0l2.85,1.7c.41.25.43.33.16.6Z"/><path class="cls-21" d="M239.94,191.35l-1,.87c-.22.19-.37.2-.69,0l-3-1.75c-.29-.18-.33-.3-.13-.48l2-1.74c.19-.16.37-.17.65,0l3,1.77c.27.16.3.27.11.44l-1,.89Z"/><path class="cls-21" d="M258,186.2l1.5.86c.26.15.31.29.14.44l-2,1.83c-.18.16-.35.16-.62,0l-3-1.74c-.28-.16-.32-.28-.13-.46l2-1.79c.2-.18.36-.18.67,0Z"/><path class="cls-21" d="M257.27,192.31l-1,.91c-.19.17-.33.17-.62,0l-2.92-1.71c-.38-.22-.4-.34-.14-.57l1.87-1.71c.24-.22.4-.21.76,0l2.84,1.65c.36.21.39.31.16.53Z"/><path class="cls-21" d="M240.09,184.09l-1.47-.86c-.3-.18-.34-.29-.15-.47l2-1.74c.19-.17.36-.17.65,0l3,1.75c.23.13.27.28.12.41q-1,.91-2,1.82c-.16.14-.38.11-.61,0l-1.5-.88Z"/><path class="cls-21" d="M286.11,202.51l1.47.86c.3.18.34.3.15.49l-1.9,1.89c-.2.2-.37.2-.69,0L282.19,204c-.29-.17-.34-.3-.14-.49l1.9-1.87c.2-.2.37-.2.69,0Z"/><path class="cls-21" d="M252.14,181.92l-1.52-.87c-.24-.13-.27-.25-.11-.39l2-1.78c.22-.2.38-.2.71,0l2.9,1.66c.31.18.34.3.13.49l-1.92,1.75c-.23.21-.36.21-.71,0l-1.47-.84Z"/><path class="cls-21" d="M262,195l-1,.9c-.2.19-.36.2-.66,0l-3-1.76c-.27-.16-.31-.28-.13-.45l2-1.82c.19-.17.36-.17.65,0l3,1.73c.29.17.32.3.13.48Z"/><path class="cls-21" d="M241.25,185.68l1.47.86c.29.17.32.28.13.45l-2,1.76c-.21.18-.36.18-.67,0l-3-1.75c-.28-.16-.32-.29-.14-.46l2-1.76c.18-.16.36-.15.65,0l1.5.88Z"/><path class="cls-21" d="M290.2,211.63l-.95,1c-.19.19-.34.2-.63,0l-3-1.78c-.29-.17-.32-.29-.13-.48l1.91-1.91c.18-.18.36-.19.64,0l3,1.77c.28.17.31.29.12.48Z"/><path class="cls-21" d="M267.63,198.34l1-.93c.18-.16.35-.17.62,0l3,1.75c.3.17.32.3.12.49l-1.9,1.82c-.22.21-.36.22-.68,0l-3-1.77c-.28-.16-.3-.27-.11-.45Z"/><path class="cls-21" d="M238.13,173.89l-1.44-.82c-.35-.2-.38-.29-.15-.49l1.95-1.69c.21-.18.38-.18.7,0l2.9,1.65c.32.19.36.29.14.48l-1.94,1.7c-.23.2-.37.2-.71,0l-1.44-.82Z"/><path class="cls-21" d="M293.05,210.41l-1.5-.88c-.25-.14-.3-.27-.13-.43.66-.65,1.3-1.3,1.95-2,.19-.19.33-.2.63,0l3,1.75c.25.14.3.29.14.45l-2,2c-.15.15-.36.16-.6,0Z"/><path class="cls-21" d="M249.5,189.59l-1.5-.88c-.32-.2-.34-.27-.12-.47l1.94-1.76c.21-.19.36-.19.69,0l2.92,1.7c.3.18.35.3.16.48l-2,1.82c-.17.16-.37.13-.6,0l-1.5-.88Z"/><path class="cls-21" d="M244.14,184.63l1-.89c.18-.16.35-.17.62,0l3.05,1.77c.21.12.25.26.11.39l-2,1.84a.45.45,0,0,1-.58,0l-3-1.75c-.33-.19-.34-.28-.11-.48l1-.86Z"/><path class="cls-21" d="M256.94,196.72l.95-.88c.21-.19.35-.2.66,0l3,1.75c.29.17.32.29.13.47l-1.93,1.81c-.21.2-.37.2-.69,0l-2.93-1.73c-.35-.21-.37-.29-.14-.51Z"/><path class="cls-21" d="M270.87,192.72l-1.46-.85c-.3-.18-.34-.32-.14-.5l1.9-1.78c.23-.21.39-.21.74,0l2.86,1.63c.34.2.38.32.16.53l-1.88,1.8c-.24.23-.34.23-.72,0l-1.44-.83Z"/><path class="cls-21" d="M253.3,183.51l1.49.86c.28.16.31.27.13.43l-2,1.8c-.19.17-.35.17-.64,0l-3-1.74c-.27-.16-.31-.27-.13-.44l2-1.8a.47.47,0,0,1,.6,0Z"/><path class="cls-21" d="M268.92,194.41l1-.93c.19-.18.34-.18.63,0l3,1.73c.28.16.31.27.13.44l-2,1.87c-.19.18-.35.19-.63,0l-3-1.73c-.31-.18-.34-.29-.14-.48Z"/><path class="cls-21" d="M263.59,197.85l-1.47-.87c-.33-.19-.36-.31-.16-.5l1.94-1.82a.47.47,0,0,1,.62,0l3,1.75c.29.17.32.29.14.47l-2,1.86a.46.46,0,0,1-.62,0l-1.5-.88Z"/><path class="cls-21" d="M289.63,203.61l-1.47-.86c-.31-.18-.34-.29-.15-.49l1.9-1.89c.2-.19.37-.2.67,0l3,1.72c.28.16.31.28.14.46l-1.95,2a.43.43,0,0,1-.59,0l-1.52-.89Z"/><path class="cls-21" d="M280.79,206.08l-1,.93c-.19.19-.34.2-.64,0l-3-1.77c-.3-.18-.32-.28-.12-.47l1.93-1.87c.19-.18.36-.19.66,0l3,1.73c.3.18.33.3.14.49Z"/><path class="cls-21" d="M284.3,198.59l1-.93c.19-.18.34-.19.63,0l3,1.73c.27.15.3.28.13.46l-1.95,1.93a.44.44,0,0,1-.59,0l-3-1.76c-.28-.17-.31-.27-.12-.45Z"/><path class="cls-21" d="M245.93,176.53l-1,.88c-.19.16-.34.17-.61,0l-3-1.73c-.27-.16-.3-.27-.11-.43l2-1.73c.2-.17.37-.18.67,0l2.9,1.65c.33.19.36.3.14.5Z"/><path class="cls-21" d="M264.62,187.25l-1,.92c-.19.17-.33.18-.61,0l-3-1.74c-.27-.16-.29-.27-.11-.44l2-1.8c.19-.18.35-.19.64,0l3,1.71c.27.16.3.27.12.44Z"/><path class="cls-21" d="M274.93,193.18l1-.92c.19-.18.35-.18.64,0l3,1.71c.29.17.32.3.13.49l-1.91,1.85c-.19.18-.35.19-.64,0l-3-1.74c-.3-.17-.32-.27-.12-.46Z"/><path class="cls-21" d="M279.58,195.9l1-.93c.21-.2.38-.21.69,0l2.94,1.69c.3.17.34.3.15.49L282.39,199c-.19.19-.34.19-.63,0l-3-1.74c-.29-.17-.32-.28-.13-.47l1-.93Z"/><path class="cls-21" d="M290.78,205.24l1.5.88c.29.17.33.28.14.47l-1.91,1.92c-.2.2-.34.21-.65,0l-3-1.75c-.29-.17-.33-.29-.14-.48l1.93-1.92c.18-.17.34-.18.61,0Z"/><path class="cls-21" d="M297.42,206.22l-1,1c-.18.18-.33.19-.61,0l-3-1.76c-.24-.14-.29-.28-.13-.44l2-2c.17-.17.34-.18.61,0l3,1.74c.27.16.3.28.13.46Z"/><path class="cls-21" d="M281.42,199.79l1.47.86c.3.17.33.28.14.46l-1.94,1.9c-.18.18-.33.19-.61,0l-3-1.77c-.24-.14-.29-.29-.14-.44l2-1.92c.16-.16.36-.14.6,0Z"/><path class="cls-21" d="M240.84,178.14l1-.86c.2-.17.33-.18.63,0l3,1.7c.29.17.33.28.14.45l-2,1.77c-.18.16-.35.16-.62,0l-3-1.73c-.28-.16-.31-.27-.13-.43Z"/><path class="cls-21" d="M248.63,180.82l1.47.85c.3.17.33.27.14.45l-2,1.78c-.19.16-.34.16-.62,0l-3-1.73c-.26-.15-.3-.3-.14-.44l2-1.79a.48.48,0,0,1,.6,0Z"/><path class="cls-21" d="M243.41,190.63l-1.48-.87c-.27-.16-.3-.28-.12-.44l2-1.79a.47.47,0,0,1,.6,0l3,1.77c.26.16.3.28.12.44l-2,1.79c-.19.17-.35.17-.64,0l-1.53-.9Z"/><path class="cls-21" d="M256,196.19l-1,.89c-.19.17-.35.17-.64,0l-3-1.76c-.29-.17-.32-.29-.13-.46l1.95-1.8c.2-.19.36-.19.66,0l3,1.78c.25.15.24.29.09.43Z"/><path class="cls-21" d="M267,204.57l-1.51-.89c-.26-.15-.28-.3-.14-.44l2-1.9a.47.47,0,0,1,.61,0l3,1.79c.26.15.29.29.12.46l-1.93,1.86c-.2.19-.37.19-.66,0Z"/><path class="cls-21" d="M281.16,213l-1.48-.88c-.32-.19-.37-.31-.16-.51l1.92-1.89c.18-.18.35-.18.64,0l3,1.75c.33.2.36.31.16.51l-1.88,1.88c-.24.23-.36.23-.73,0Z"/><path class="cls-21" d="M274.28,199.41l-1.47-.86c-.3-.18-.35-.28-.16-.46l2-1.89c.16-.15.34-.16.59,0l3,1.76c.25.14.29.28.14.44l-2,1.9c-.18.17-.34.17-.62,0l-1.5-.88Z"/><path class="cls-21" d="M300.85,213.06l-.94,1c-.2.2-.34.21-.65,0l-3-1.74c-.31-.18-.35-.3-.15-.5l1.91-1.94c.19-.19.34-.19.63,0l3,1.74c.3.18.33.28.14.48Z"/><path class="cls-21" d="M276.44,210.18,275,209.3c-.33-.2-.36-.3-.16-.51l1.91-1.86c.21-.2.36-.2.68,0l2.93,1.73c.32.19.36.32.14.53L278.6,211c-.22.21-.37.22-.71,0Z"/><path class="cls-21" d="M271.06,205l1-.94c.16-.15.35-.15.6,0l2.93,1.73c.4.24.43.33.18.58l-1.84,1.79c-.25.24-.37.24-.75,0l-2.88-1.71c-.35-.21-.39-.32-.16-.54l1-.92Z"/><path class="cls-21" d="M264.76,199.47l1.47.87c.28.17.32.29.13.47l-1.94,1.84c-.2.19-.35.19-.66,0l-3-1.77c-.29-.17-.32-.29-.13-.47l2-1.84c.18-.17.35-.17.64,0Z"/><path class="cls-21" d="M263.29,191.16l-.95.88c-.2.18-.36.19-.66,0l-3-1.73c-.29-.17-.33-.28-.14-.46l2-1.82c.18-.17.34-.17.61,0l3,1.73c.3.17.33.29.12.47Z"/><path class="cls-21" d="M265.57,187.79l1-.92c.18-.17.33-.17.61,0l3,1.71c.27.16.31.28.13.45l-2,1.87a.44.44,0,0,1-.57,0l-3.08-1.78c-.23-.14-.25-.27-.1-.41l1-.93Z"/><path class="cls-21" d="M260,184.57l-1,.87c-.23.21-.39.21-.74,0l-2.86-1.65c-.39-.23-.42-.29-.16-.53l1.91-1.74c.21-.19.37-.19.69,0l2.88,1.65c.35.2.38.32.16.53l-.93.86Z"/><path class="cls-21" d="M281.75,206.61l.94-.92c.2-.2.36-.21.66,0l3,1.75c.28.17.32.29.13.48l-1.92,1.91c-.2.2-.33.2-.66,0l-2.93-1.73c-.34-.2-.37-.31-.15-.53l1-.94Z"/><path class="cls-21" d="M262.92,181.67l1.46.83c.3.17.33.27.14.45l-.76.7a.45.45,0,0,1-.57,0l-3.06-1.75c-.22-.13-.25-.27-.11-.41l.76-.69c.18-.16.34-.17.62,0Z"/><path class="cls-21" d="M290.94,197.71l1.5.86c.28.17.32.28.13.47l-.71.71c-.18.17-.37.18-.65,0l-3-1.74c-.22-.13-.29-.26-.13-.41s.5-.51.76-.75.34-.17.62,0Z"/><path class="cls-21" d="M242.51,170.08l1.44.81c.34.2.37.28.14.49l-.7.61c-.21.18-.37.18-.67,0l-2.93-1.66c-.3-.17-.34-.29-.14-.46l.75-.65a.47.47,0,0,1,.6,0Z"/><path class="cls-21" d="M257,180.12l-1.44-.82c-.31-.18-.34-.3-.14-.49l.71-.64c.2-.17.35-.18.63,0l3,1.69c.29.17.32.27.13.45l-.74.68c-.17.15-.36.16-.62,0Z"/><path class="cls-21" d="M300.31,203.1l1.47.85c.31.18.34.28.14.49l-.7.72a.45.45,0,0,1-.62,0l-3-1.73c-.27-.16-.31-.28-.14-.46l.74-.75c.19-.18.31-.18.61,0Z"/><path class="cls-21" d="M294.4,201.61l-1.47-.85c-.29-.17-.33-.3-.15-.49l.71-.71c.19-.18.34-.19.63,0l3,1.72c.29.17.31.27.12.47l-.67.68c-.23.23-.38.23-.72,0Z"/><path class="cls-21" d="M248.92,173.71l1.46.83c.31.18.34.28.15.46l-.73.65c-.19.16-.37.17-.64,0l-3-1.69c-.27-.15-.3-.27-.12-.43l.76-.68a.45.45,0,0,1,.59,0l1.51.86Z"/><path class="cls-21" d="M305,205.8l1.47.85c.31.18.33.27.15.47l-.74.76a.43.43,0,0,1-.57,0l-3-1.77c-.22-.13-.28-.28-.13-.43l.75-.77a.44.44,0,0,1,.59,0l1.52.88Z"/><path class="cls-21" d="M282.71,194.87l-1.47-.85c-.3-.17-.33-.3-.15-.49l.69-.67c.21-.2.36-.2.66,0l3,1.71c.25.14.29.28.13.43l-.77.75a.46.46,0,0,1-.6,0Z"/><path class="cls-21" d="M279.24,191l1.49.86c.29.17.33.28.15.46l-.73.71a.47.47,0,0,1-.62,0l-3-1.73c-.24-.14-.29-.28-.13-.43l.75-.72c.19-.17.33-.18.61,0l1.49.85Z"/><path class="cls-21" d="M274.59,188.33l1.46.84c.31.18.34.28.14.48l-.73.7a.46.46,0,0,1-.6,0l-3-1.73c-.25-.15-.29-.29-.13-.45l.73-.69c.19-.17.35-.17.64,0Z"/><path class="cls-21" d="M252.32,177.47l-1.44-.82c-.31-.18-.35-.3-.15-.48l.73-.65c.19-.16.35-.16.62,0l3,1.69c.29.16.32.26.14.43s-.5.46-.76.69-.35.16-.62,0Z"/><path class="cls-21" d="M269.91,185.66l1.49.85c.29.17.32.28.13.46l-.72.68c-.19.18-.37.18-.67,0l-3-1.69c-.26-.15-.31-.28-.14-.44s.49-.47.75-.7.33-.17.61,0l1.49.85Z"/><g class="cls-22"><line class="cls-23" x1="264.64" y1="150.99" x2="262.99" y2="150.09"/><line class="cls-24" x1="259.43" y1="148.14" x2="225.61" y2="129.62"/><polyline class="cls-23" points="223.83 128.65 222.19 127.75 222.19 125.87"/><line class="cls-25" x1="222.19" y1="122.3" x2="222.19" y2="102.66"/><line class="cls-23" x1="222.19" y1="100.88" x2="222.19" y2="99"/></g><path class="cls-26" d="M239.32,115.15l-22.95-12.94A6,6,0,0,1,213.31,97V64.48A2.88,2.88,0,0,1,217.6,62l23.22,13.09A4.5,4.5,0,0,1,243.11,79v33.95A2.54,2.54,0,0,1,239.32,115.15Z"/><polygon class="cls-26" points="215.42 61.68 210.87 63.17 214.9 64.55 215.42 61.68"/><polygon class="cls-26" points="241.4 115.33 237.03 116.7 237.56 110.76 241.4 115.33"/><path class="cls-15" d="M235.35,116.4l-23-12.94a6,6,0,0,1-3.06-5.25V65.74a2.88,2.88,0,0,1,4.29-2.51l23.22,13.09a4.5,4.5,0,0,1,2.29,3.92v33.95A2.54,2.54,0,0,1,235.35,116.4Z"/><path class="cls-26" d="M222.43,80.09l-.59,10.08c-.17,2.9-1.51,4.62-4.16,3.13A7.94,7.94,0,0,1,214,88.42l1.95-.69a4,4,0,0,0,1.58,2.43c1,.54,1.53.21,1.65-1.8l.57-9.77Z"/><path class="cls-26" d="M227.93,86.59a9.18,9.18,0,0,1,3.14,3.26l-1.33,1.37a6.19,6.19,0,0,0-1.87-2.06c-.7-.39-1.06-.24-1.09.33,0,.74.8,1.5,1.72,2.46a6.55,6.55,0,0,1,2.26,4.86c-.12,2.08-1.51,3-4,1.6a10.49,10.49,0,0,1-3.42-3.59l1.34-1.44A7.15,7.15,0,0,0,227,95.94c.81.46,1.17.26,1.21-.34S227.36,94,226.45,93c-1.09-1.17-2.33-2.84-2.22-4.74C224.35,86.1,225.82,85.41,227.93,86.59Z"/><g class="cls-22"><line class="cls-23" x1="319.54" y1="172.77" x2="321.18" y2="173.69"/><line class="cls-27" x1="324.72" y1="175.67" x2="358.37" y2="194.51"/><polyline class="cls-23" points="360.14 195.5 361.77 196.42 361.77 194.54"/><line class="cls-28" x1="361.78" y1="191.31" x2="361.78" y2="180"/><line class="cls-23" x1="361.78" y1="178.38" x2="361.78" y2="176.5"/></g><path class="cls-26" d="M377.28,189.21l-23-12.94a6,6,0,0,1-3.06-5.25V138.54a2.88,2.88,0,0,1,4.29-2.51l23.22,13.09a4.5,4.5,0,0,1,2.29,3.92V187A2.54,2.54,0,0,1,377.28,189.21Z"/><polygon class="cls-26" points="353.37 135.74 348.82 137.23 352.85 138.61 353.37 135.74"/><polygon class="cls-26" points="379.35 189.39 374.99 190.76 375.51 184.82 379.35 189.39"/><path class="cls-15" d="M373.3,190.46l-23-12.94a6,6,0,0,1-3.06-5.25V139.8a2.88,2.88,0,0,1,4.29-2.51l23.22,13.09a4.5,4.5,0,0,1,2.29,3.92v33.95A2.54,2.54,0,0,1,373.3,190.46Z"/><path class="cls-26" d="M354,154.36a6.54,6.54,0,0,1,2.6,2.61l-1.41,1.53a3.18,3.18,0,0,0-1.2-1.32c-1.3-.67-2.21.19-2.33,2.18s.68,3.72,1.85,4.32a1.89,1.89,0,0,0,1.7,0l.93,2.78a3.29,3.29,0,0,1-3.09-.19c-2.55-1.32-4.39-4.54-4.17-8.34S351.52,153.06,354,154.36Z"/><path class="cls-26" d="M361.58,158.23a8.62,8.62,0,0,1,3.14,3.12l-1.33,1.42a5.81,5.81,0,0,0-1.87-2c-.7-.36-1.06-.2-1.09.38,0,.74.8,1.46,1.71,2.38a6.22,6.22,0,0,1,2.26,4.75c-.12,2.08-1.52,3-4,1.77a9.82,9.82,0,0,1-3.42-3.43l1.34-1.49a6.74,6.74,0,0,0,2.29,2.43c.81.42,1.18.21,1.22-.39s-.84-1.57-1.76-2.52c-1.09-1.12-2.33-2.73-2.22-4.63C358,157.88,359.47,157.14,361.58,158.23Z"/><path class="cls-26" d="M369.74,162.44a8.65,8.65,0,0,1,3.14,3.14L371.54,167a5.83,5.83,0,0,0-1.87-2c-.7-.36-1.06-.2-1.09.38,0,.74.8,1.46,1.72,2.39a6.27,6.27,0,0,1,2.26,4.77c-.12,2.09-1.52,3.05-4,1.77a9.85,9.85,0,0,1-3.42-3.45l1.34-1.5a6.72,6.72,0,0,0,2.29,2.44c.81.42,1.17.21,1.21-.4s-.84-1.58-1.76-2.54c-1.09-1.13-2.33-2.74-2.22-4.65C366.16,162.09,367.63,161.35,369.74,162.44Z"/><path class="cls-20" d="M276.58,83.31l-23-12.94a6,6,0,0,1-3.06-5.25V32.64a2.88,2.88,0,0,1,4.29-2.51l23.22,13.09a4.5,4.5,0,0,1,2.29,3.92V81.09A2.54,2.54,0,0,1,276.58,83.31Z"/><polygon class="cls-20" points="252.68 29.84 248.13 31.33 252.16 32.71 252.68 29.84"/><polygon class="cls-20" points="278.66 83.49 274.29 84.86 274.81 78.92 278.66 83.49"/><path class="cls-21" d="M272.61,84.56,249.66,71.62a6,6,0,0,1-3.06-5.25V33.9a2.88,2.88,0,0,1,4.29-2.51l23.22,13.09a4.5,4.5,0,0,1,2.29,3.92V82.35A2.54,2.54,0,0,1,272.61,84.56Z"/><path class="cls-20" d="M253.58,50.1A6,6,0,0,1,256,52.52L254.68,54a2.92,2.92,0,0,0-1.11-1.22c-1.21-.61-2.06.22-2.17,2.09s.64,3.5,1.73,4.05a1.72,1.72,0,0,0,1.58,0l.86,2.61a3,3,0,0,1-2.87-.13c-2.37-1.2-4.08-4.21-3.87-7.8S251.23,48.92,253.58,50.1Z"/><polygon class="cls-20" points="262.05 53.07 261.82 57.11 264.83 58.64 264.7 60.92 261.69 59.39 261.46 63.43 259.61 62.49 259.84 58.45 256.83 56.93 256.96 54.65 259.97 56.17 260.2 52.14 262.05 53.07"/><polygon class="cls-20" points="271.07 57.65 270.85 61.71 273.86 63.25 273.73 65.54 270.72 64 270.49 68.05 268.64 67.11 268.87 63.05 265.86 61.52 265.99 59.23 269 60.76 269.23 56.71 271.07 57.65"/><line class="cls-29" x1="262.09" y1="98.17" x2="262.09" y2="76.46"/><path class="cls-13" d="M319.91,88.82,297,75.88a6,6,0,0,1-3.06-5.25V38.16a2.88,2.88,0,0,1,4.29-2.51l23.22,13.09a4.5,4.5,0,0,1,2.29,3.92V86.61A2.54,2.54,0,0,1,319.91,88.82Z"/><polygon class="cls-13" points="296 35.35 291.45 36.84 295.48 38.22 296 35.35"/><polygon class="cls-13" points="321.98 89 317.62 90.37 318.14 84.44 321.98 89"/><path class="cls-12" d="M315.93,90.08,293,77.14a6,6,0,0,1-3.06-5.25V39.41a2.88,2.88,0,0,1,4.29-2.51L317.43,50a4.5,4.5,0,0,1,2.29,3.92V87.86A2.54,2.54,0,0,1,315.93,90.08Z"/><g class="cls-30"><path class="cls-13" d="M297.28,54.7c1.85,1,2.88,3.48,2.7,6.45-.19,3.3-1.86,4.37-3.52,3.5a4.69,4.69,0,0,1-1.77-2v1.56l-.16,2.81-2.27-1.19L293,52.73l1.85,1,.11,1,.06,0A2.29,2.29,0,0,1,297.28,54.7ZM296.07,62c.79.41,1.47-.1,1.59-2.08.1-1.72-.27-2.81-1.18-3.28a1.17,1.17,0,0,0-1.36.18l-.23,3.94A3.08,3.08,0,0,0,296.07,62"/><path class="cls-13" d="M304.23,54.48,304,57.81l-.2,1.69a2.29,2.29,0,0,1,2.44-.1c1.66.87,2.29,2.73,2.15,5.14l-.35,6-2.27-1.2.33-5.62c.08-1.39-.19-2-.85-2.32a1.26,1.26,0,0,0-1.47.19l-.38,6.5-2.27-1.19L302,53.3Z"/><path class="cls-13" d="M314.8,63.88c1.85,1,2.87,3.51,2.7,6.5-.19,3.33-1.86,4.4-3.52,3.52a4.72,4.72,0,0,1-1.77-2l0,1.57L312,76.32l-2.26-1.2.77-13.24,1.84,1,.11,1,.06,0A2.29,2.29,0,0,1,314.8,63.88Zm-1.21,7.4c.79.42,1.48-.09,1.59-2.09.1-1.73-.28-2.83-1.18-3.31a1.16,1.16,0,0,0-1.37.17l-.23,4a3.1,3.1,0,0,0,1.19,1.26"/></g><line class="cls-29" x1="303.25" y1="118.72" x2="303.25" y2="82.22"/><polyline class="cls-29" points="344.03 122.88 344.03 144.58 334.58 138.86"/><path class="cls-20" d="M359.67,130.1l-22.95-12.94a6,6,0,0,1-3.06-5.25V79.43a2.88,2.88,0,0,1,4.29-2.51L361.17,90a4.5,4.5,0,0,1,2.29,3.92v33.95A2.54,2.54,0,0,1,359.67,130.1Z"/><polygon class="cls-20" points="335.76 76.63 331.21 78.12 335.24 79.5 335.76 76.63"/><polygon class="cls-20" points="361.74 130.28 357.38 131.65 357.9 125.71 361.74 130.28"/><path class="cls-21" d="M355.69,131.35l-23-12.94a6,6,0,0,1-3.06-5.25V80.69A2.88,2.88,0,0,1,334,78.18l23.22,13.09a4.5,4.5,0,0,1,2.29,3.92v33.95A2.54,2.54,0,0,1,355.69,131.35Z"/><path class="cls-20" d="M333.85,92.83l-.16,2.76-.17,1.4a1.93,1.93,0,0,1,2-.08c1.39.72,1.91,2.26,1.79,4.26l-.29,5-1.89-1,.27-4.66c.07-1.15-.16-1.64-.7-1.92a1.05,1.05,0,0,0-1.23.16l-.31,5.39-1.89-1L332,91.85Z"/><path class="cls-20" d="M341.38,98l-.12,2.13,1.53.8-.11,1.86-1.53-.8-.19,3.21a1.62,1.62,0,0,0,.75,1.7,1.6,1.6,0,0,0,.61.17l.2,1.89a4,4,0,0,1-1.43-.45c-1.58-.83-2.13-2.41-2-4.26l.19-3.24-.87-.45.1-1.77,1,.42.34-2Z"/><path class="cls-20" d="M351.45,105.22c1.38.72,1.92,2.29,1.81,4.3l-.29,5-1.89-1,.27-4.7c.07-1.16-.17-1.65-.7-1.93a1,1,0,0,0-1.13.21l-.31,5.43-1.89-1,.27-4.69c.07-1.15-.16-1.65-.7-1.93a1,1,0,0,0-1.13.21l-.31,5.42-1.89-1,.47-8,1.54.81.08,1.1,0,0a1.73,1.73,0,0,1,2-.21,3.34,3.34,0,0,1,1.68,2.28A1.79,1.79,0,0,1,351.45,105.22Z"/><path class="cls-20" d="M357.12,105l-.52,9c0,.52.15.78.3.86a.79.79,0,0,0,.23.09l.12,1.88a2.07,2.07,0,0,1-1-.3c-1.3-.69-1.68-2-1.58-3.63l.51-8.88Z"/><path class="cls-18" d="M267.64,171.27v2a3.11,3.11,0,0,0,1.55,2.54l18.16,10.47a14.69,14.69,0,0,0,9.68,2l11-4.8v-2.77l-11,4.78a14.71,14.71,0,0,1-9.68-2Z"/><path class="cls-31" d="M282.29,166.85,308,180.76l-11,4.78a14.71,14.71,0,0,1-9.68-2l-19.12-11c-.76-.44-.8-1.53-.06-1.59Z"/><path class="cls-20" d="M255.52,86.35c-3.09-1.83-5.58-.54-5.57,2.9l.11,56.73a11.82,11.82,0,0,0,5.6,9.31l75.13,40.59c3.09,1.61,5.58.26,5.57-3l-.11-57c0-3.27-2.51-7.32-5.6-9Z"/><path class="cls-32" d="M254.91,86l-.31-.14-.16-.06-.3-.1-.14,0-.36-.09h-.06l-.41-.05h-.63l3-.33h.63l.41.05h.06l.36.09.14,0,.3.1.16.06.31.14.14.07.46.25,75.13,40.52.51.32.15.1.38.27.13.1.46.38h0l.12.12.36.35.17.18.23.24.07.09.12.14.32.38.11.13.06.07.09.12q.21.28.4.56l.08.12.06.1q.2.32.39.65l.05.09v0l0,.09.24.48.08.17.07.15.11.26.09.21c.06.16.12.32.17.48l0,.13v0c0,.12.07.23.1.35s.06.18.08.27.06.26.08.38,0,.17.05.25,0,.28.06.42,0,.14,0,.21,0,.41,0,.62l.11,56.85c0,2.1-1,3.4-2.59,3.64l-3,.45c1.56-.23,2.59-1.54,2.59-3.65l-.11-57q0-.3,0-.62c0-.07,0-.14,0-.21s0-.28-.06-.42,0-.17-.05-.26-.05-.26-.08-.38-.05-.18-.08-.28-.07-.25-.11-.37l0-.13c-.05-.16-.11-.32-.17-.48l-.09-.21-.18-.41-.08-.17-.24-.48,0-.09-.07-.11q-.18-.33-.39-.65l-.14-.22q-.19-.29-.4-.56l-.14-.19-.11-.14-.32-.38-.12-.14-.3-.32-.17-.18-.36-.35-.12-.12-.48-.4-.13-.1-.38-.27-.15-.1-.51-.32L255.52,86.35l-.46-.25Z"/><path class="cls-18" d="M254.91,86l-.31-.14-.16-.06-.3-.1-.14,0-.36-.09h-.06l-.41-.05h-.63l3-.33h.63l.41.05h.06l.36.09.14,0,.3.1.16.06.31.14.14.07.46.25,75.13,40.52.51.32.15.1.38.27.13.1.46.38h0l.12.12.36.35.17.18.23.24.07.09.12.14.32.38.11.13.06.07.09.12q.21.28.4.56l.08.12.06.1q.2.32.39.65l.05.09v0l0,.09.24.48.08.17.07.15.11.26.09.21c.06.16.12.32.17.48l0,.13v0c0,.12.07.23.1.35s.06.18.08.27.06.26.08.38,0,.17.05.25,0,.28.06.42,0,.14,0,.21,0,.41,0,.62l.11,56.85c0,2.1-1,3.4-2.59,3.64l-3,.45c1.56-.23,2.59-1.54,2.59-3.65l-.11-57q0-.3,0-.62c0-.07,0-.14,0-.21s0-.28-.06-.42,0-.17-.05-.26-.05-.26-.08-.38-.05-.18-.08-.28-.07-.25-.11-.37l0-.13c-.05-.16-.11-.32-.17-.48l-.09-.21-.18-.41-.08-.17-.24-.48,0-.09-.07-.11q-.18-.33-.39-.65l-.14-.22q-.19-.29-.4-.56l-.14-.19-.11-.14-.32-.38-.12-.14-.3-.32-.17-.18-.36-.35-.12-.12-.48-.4-.13-.1-.38-.27-.15-.1-.51-.32L255.52,86.35l-.46-.25Z"/><path class="cls-33" d="M331.51,188.52a1,1,0,0,0,.9,0,1.4,1.4,0,0,0,.52-1.27l-.11-52.35a5.87,5.87,0,0,0-2.65-4.48L255,90l-.25-.13a1,1,0,0,0-.9,0,1.44,1.44,0,0,0-.52,1.31l.11,51.7a6,6,0,0,0,2.65,4.62l75.13,40.91Z"/><path class="cls-34" d="M331.87,190a1,1,0,0,0,.9,0,1.4,1.4,0,0,0,.52-1.27l-.11-52.34a5.86,5.86,0,0,0-2.65-4.48L255.4,91.63l-.25-.13a1,1,0,0,0-.9,0,1.44,1.44,0,0,0-.52,1.31l.11,51.69a6,6,0,0,0,2.65,4.61l75.13,40.84Z"/><path class="cls-12" d="M330.22,130.42,255.09,90l-.25-.13a1,1,0,0,0-.9,0,1.44,1.44,0,0,0-.52,1.31V93l79.73,43S332.67,131.79,330.22,130.42Z"/><path class="cls-26" d="M327,130.45c0,.52-.22.87-.5.78s-.52-.58-.53-1.1.22-.87.5-.78S327,129.93,327,130.45Z"/><path class="cls-26" d="M325.34,129.53c0,.52-.22.87-.5.79s-.52-.58-.53-1.1.22-.87.5-.79S325.33,129,325.34,129.53Z"/><path class="cls-26" d="M328.75,131.29c0,.52-.22.87-.5.78s-.52-.58-.53-1.1.22-.87.5-.78S328.74,130.77,328.75,131.29Z"/><polygon class="cls-1" points="287.63 152.51 287.63 150.06 268.41 139.8 268.41 142.28 287.63 152.51"/><polygon class="cls-1" points="266.1 109.62 266.1 112.1 275.28 117.14 275.28 114.67 266.1 109.62"/><polygon class="cls-1" points="289.13 157.88 309 168.41 309 165.98 289.13 155.43 289.13 157.88"/><polygon class="cls-1" points="309 163.89 309 162 310 162 289.13 150.86 289.13 153.31 309 163.89"/><polygon class="cls-1" points="276.78 117.96 316.69 139.85 316.69 137.44 276.78 115.5 276.78 117.96"/><polygon class="cls-1" points="320 156.06 320 153.65 300.01 142.83 300.01 145.26 320 156.06"/><polygon class="cls-35" points="316.69 137.44 316.69 135.36 276.78 113.36 276.78 115.5 316.69 137.44"/><polygon class="cls-35" points="275.28 114.67 275.28 112.53 266.1 107.48 266.1 109.62 275.28 114.67"/><polygon class="cls-35" points="258.27 103.16 258.26 105.31 264.6 108.8 264.6 106.65 258.27 103.16"/><polygon class="cls-35" points="326.35 142.75 326.35 140.68 318.19 136.19 318.19 138.27 326.35 142.75"/><polygon class="cls-12" points="258.26 107.8 258.25 109.95 264.6 113.42 264.6 111.28 258.26 107.8"/><polygon class="cls-12" points="326.35 147.23 326.35 145.15 318.19 140.68 318.19 142.76 326.35 147.23"/><polygon class="cls-12" points="276.78 117.96 276.78 120.09 316.69 141.94 316.69 139.85 276.78 117.96"/><polygon class="cls-12" points="266.1 112.1 266.1 114.25 275.28 119.27 275.28 117.14 266.1 112.1"/><polygon class="cls-35" points="258.25 112.44 258.25 114.59 275.28 123.87 275.28 121.74 258.25 112.44"/><polygon class="cls-35" points="298.5 136.53 298.5 134.42 276.78 122.56 276.78 124.69 298.5 136.53"/><polygon class="cls-35" points="326.35 151.7 326.35 149.62 300.01 135.24 300.01 137.34 326.35 151.7"/><polygon class="cls-12" points="320 153.65 320 151.57 300.01 140.72 300.01 142.83 320 153.65"/><polygon class="cls-12" points="326.35 157.1 326.35 155.02 321.5 152.39 321.5 154.47 326.35 157.1"/><polygon class="cls-12" points="258.27 118.06 258.26 120.22 298.5 142.01 298.5 139.91 258.27 118.06"/><polygon class="cls-35" points="258.26 122.7 258.25 124.86 298.5 146.55 298.5 144.45 258.26 122.7"/><polygon class="cls-35" points="300.01 145.26 300.01 147.36 320 158.14 320 156.06 300.01 145.26"/><polygon class="cls-35" points="326.35 161.57 326.35 159.49 321.5 156.87 321.5 158.95 326.35 161.57"/><polygon class="cls-12" points="258.25 127.35 258.25 129.5 266.91 134.15 266.91 132 258.25 127.35"/><polygon class="cls-12" points="326.35 166.04 326.35 163.97 321.5 161.35 321.5 163.43 326.35 166.04"/><polygon class="cls-12" points="268.41 132.81 268.41 134.95 320 162.63 320 160.55 268.41 132.81"/><polygon class="cls-35" points="287.63 150.06 287.63 147.94 268.41 137.66 268.41 139.8 287.63 150.06"/><polygon class="cls-35" points="310 162 310.5 162 310.5 162.27 326.35 170.73 326.35 168.66 289.13 148.75 289.13 150.86 310 162"/><polygon class="cls-35" points="258.27 132.23 258.26 134.38 266.91 139 266.91 136.86 258.27 132.23"/><polygon class="cls-12" points="258.26 136.87 258.25 139.03 266.91 143.62 266.91 141.48 258.26 136.87"/><polygon class="cls-12" points="326.35 175.2 326.35 173.13 310.5 164.69 310.5 166.78 326.35 175.2"/><polygon class="cls-12" points="268.41 142.28 268.41 144.42 287.63 154.63 287.63 152.51 268.41 142.28"/><polygon class="cls-12" points="289.13 155.43 309 165.98 309 163.89 289.13 153.31 289.13 155.43"/><polygon class="cls-35" points="326.35 179.67 326.35 177.6 310.5 169.2 310.5 171.29 326.35 179.67"/><polygon class="cls-35" points="289.13 157.88 289.13 159.99 309 170.5 309 168.41 289.13 157.88"/><polygon class="cls-35" points="258.25 141.51 258.25 143.67 287.63 159.2 287.63 157.08 258.25 141.51"/><path class="cls-36" d="M219.83,188.59l5.22-8a3.82,3.82,0,0,1,1.75-1.31l3.3-1.21a4,4,0,0,1,2,.12l5,2.28c.67.59,1.53,1.57.65,1.45h0a5.42,5.42,0,0,0-3.82.94l-1.29.91a3.33,3.33,0,0,0-1.38,2.26h0a.79.79,0,0,0,1.16.8l.37-.21a2.75,2.75,0,0,1,3.28.46l.12.12-3.9,2.84a23.06,23.06,0,0,1-4.06,2.36l-2.92.46-1.5-1.39a12.49,12.49,0,0,0-2.83-2.11Z"/><path class="cls-37" d="M227.67,182.35a19.59,19.59,0,0,1,3.47-2.51c1.35-.74,2.92-1.38,4.39-.94a1.45,1.45,0,0,1,1.11,1"/><path class="cls-37" d="M226.38,181.49c.9-1.41,2.78-2.16,4.23-2.94a3.6,3.6,0,0,1,1.47-.52,1.3,1.3,0,0,1,1.3.71"/><path class="cls-37" d="M229.74,183.33c3.15-3.41,5.85-3.3,6.37-3.32,2.06-.07,2.89,1,2.58,1.42a1.14,1.14,0,0,1-.86.4,8.67,8.67,0,0,1-1-.06,4.88,4.88,0,0,0-2.72.77,13.87,13.87,0,0,0-2.23,1.78s-1.09,1.22-.58,2.25"/><path class="cls-20" d="M218.27,189.35l1.59-1.11s5.36,2.2,5.77,4.58l-.65,1.06A20.32,20.32,0,0,0,218.27,189.35Z"/><path class="cls-36" d="M243,203.17l3.25-9a4.2,4.2,0,0,1,1.59-1.81l2.5-1.56a6.37,6.37,0,0,1,2.89-.95s2.1.7,2.64,1l2.75,1.64c.13.82.56.89-.13,1.93l-1.67.59a3.37,3.37,0,0,0-2,2.48c-.17,4.37-1.73,6.4-2.8,7.21l-3,1.56Z"/><path class="cls-37" d="M255,190.25a1.3,1.3,0,0,0-1.29-.71A16.74,16.74,0,0,0,247,193a2.82,2.82,0,0,0-.55.8,32.11,32.11,0,0,0-1.71,4.32"/><path class="cls-37" d="M248.58,193.95a19.6,19.6,0,0,1,3.47-2.51c1.35-.74,2.92-1.38,4.39-.94a1.45,1.45,0,0,1,1.11,1"/><path class="cls-37" d="M250.65,194.93c3.15-3.41,5.85-3.3,6.37-3.32,2.06-.07,2.89,1,2.58,1.42a1.14,1.14,0,0,1-.86.4,8.69,8.69,0,0,1-1-.06,4.88,4.88,0,0,0-2.72.77,13.87,13.87,0,0,0-2.23,1.78"/><path class="cls-38" d="M258.55,193.46c.25,0,.39.32.26.54a1.1,1.1,0,0,1-.62.39,7.77,7.77,0,0,0-2,1.07,3.67,3.67,0,0,0-.82.8,5.94,5.94,0,0,0-.69,2.92A7.46,7.46,0,0,1,252,204.6"/><path class="cls-20" d="M241.78,203.21l1.59-1.11s5.36,2.2,5.77,4.58l-.3,1.41A22.22,22.22,0,0,0,241.78,203.21Z"/><path class="cls-15" d="M251.16,312.83a126.39,126.39,0,0,1-13.37-1.72c-2.66-.54-3.95-4.53-5-7.48-2.73.46-9.8,1.72-9.8,1.72s-.07,9.21-.76,10.5c-2.09,3.9-.14,6.86,1.95,7.72,6.11,2.53,10.55-3.34,13.67-3.49,5.86-.29,13.24-1.42,15.69-4.41C253.56,315.66,255.1,313.38,251.16,312.83Z"/><path class="cls-39" d="M221.83,324.38c.38.49,4.51,2.68,7.1,1.91a62.45,62.45,0,0,0,7-3.38c3.34-1.77,6.77-.8,10.46-1.63A13.18,13.18,0,0,0,252,319c1.58-1.31,3-4.07,1.46-5.47-.5-.46-2.29,2.74-8.2,3.71-2.57.42-8,.13-10.33,1.22-1.54.71-5.1,3.06-9,2.85s-4.59-3.17-4.59-3.17S220.74,323,221.83,324.38Z"/><g class="cls-40"><path class="cls-15" d="M222.17,322.93a6.49,6.49,0,0,0,3.88,1.4,11.55,11.55,0,0,0,4.12-.6c2.67-.85,5.12-2.35,7.93-3.08s5.7-.63,8.44-1a12.27,12.27,0,0,0,3.94-1.18,7,7,0,0,0,3-2.77l.07,0a6.53,6.53,0,0,1-2.83,3.2,12.1,12.1,0,0,1-4.08,1.47c-2.85.5-5.7.23-8.41.87s-5.21,2.06-8,2.86a11.85,11.85,0,0,1-4.25.47,6.64,6.64,0,0,1-3.91-1.57Z"/></g><path class="cls-13" d="M168,241.38a24.57,24.57,0,0,0,.4,3.89l-.41.12Z"/><path class="cls-13" d="M240.25,306.46l-4.12,3.33-1.14.92c-3.51,2.84-16,6.41-16,6.41l.15-11.83-.29-29.94-.13-13.46,0-3.5-23.22,5.52-1.91.18c-12.55,1.18-23-6.95-25.18-18.83l57.55-17c3.11-.8,7.41-1,11,2.1,1.71,1.46,2.75,7.4,3.34,15.35.11,1.41.2,2.9.28,4.43C241.83,272.81,240.25,306.46,240.25,306.46Z"/><path class="cls-41" d="M240.25,306.46l-4.12,3.33a8.14,8.14,0,0,1-1.06-1.79,21.3,21.3,0,0,1-1.24-7.22,158.59,158.59,0,0,0-2.56-20c-.42-2.22-1.1-4.7-3.11-5.72a7.13,7.13,0,0,0-3.53-.52c-1.64.06-3.72.6-5.73.85l-.13-13.46c.52-.21,1.06-.39,1.59-.56,2.44-.77,5-1.23,7.39-2a27.24,27.24,0,0,0,12.88-9.13C241.83,272.81,240.25,306.46,240.25,306.46Z"/><ellipse class="cls-18" cx="184.68" cy="351" rx="5.18" ry="3.45" transform="translate(-208.07 295.73) rotate(-54.24)"/><ellipse class="cls-18" cx="187.36" cy="351.72" rx="5.18" ry="3.45" transform="matrix(0.58, -0.81, 0.81, 0.58, -207.54, 298.2)"/><path class="cls-42" d="M179.95,352.43l3.61,1.35s2-7.43,7.25-6.79l-5.5-1.33A7.67,7.67,0,0,0,179.95,352.43Z"/><ellipse class="cls-18" cx="157.57" cy="323.54" rx="5.18" ry="3.45" transform="matrix(0.58, -0.81, 0.81, 0.58, -197.05, 262.32)"/><ellipse class="cls-18" cx="160.25" cy="324.26" rx="5.18" ry="3.45" transform="translate(-196.53 264.79) rotate(-54.24)"/><path class="cls-42" d="M152.84,325l3.61,1.35s2-7.43,7.25-6.79l-5.5-1.33A7.67,7.67,0,0,0,152.84,325Z"/><ellipse class="cls-18" cx="175.36" cy="297.08" rx="5.18" ry="3.45" transform="translate(-168.19 265.76) rotate(-54.24)"/><ellipse class="cls-18" cx="178.03" cy="297.8" rx="5.18" ry="3.45" transform="matrix(0.58, -0.81, 0.81, 0.58, -167.66, 268.23)"/><path class="cls-42" d="M170.62,298.51l3.61,1.35s2-7.43,7.25-6.79l-5.5-1.33A7.67,7.67,0,0,0,170.62,298.51Z"/><ellipse class="cls-18" cx="226.01" cy="304.74" rx="5.18" ry="3.45" transform="translate(-153.36 310.04) rotate(-54.24)"/><ellipse class="cls-18" cx="228.68" cy="305.46" rx="5.18" ry="3.45" transform="translate(-152.83 312.51) rotate(-54.24)"/><path class="cls-42" d="M221.28,306.17l3.61,1.35s2-7.43,7.25-6.79l-5.5-1.33A7.67,7.67,0,0,0,221.28,306.17Z"/><ellipse class="cls-18" cx="230.95" cy="324.51" rx="5.18" ry="3.45" transform="translate(-167.34 322.26) rotate(-54.24)"/><ellipse class="cls-18" cx="233.63" cy="325.23" rx="5.18" ry="3.45" transform="matrix(0.58, -0.81, 0.81, 0.58, -166.82, 324.74)"/><path class="cls-42" d="M226.22,325.94l3.61,1.35s2-7.43,7.25-6.79l-5.5-1.33A7.67,7.67,0,0,0,226.22,325.94Z"/><path class="cls-18" d="M233.89,318.91l-28.45-6.72a.76.76,0,0,1-.09-1.44l21.87-9.43c1.39-.59,1.28-4.71-.17-4.27l-29.58,10.78-7.2,2.71-33.46,6.25c-1.14.38.83,3.54,2.62,3.29l33.12-4.6a.51.51,0,0,1,.56.61l-8.31,29.53a1.4,1.4,0,0,0,1.73,1.78,2.69,2.69,0,0,0,2-1.77l10.25-27.69a1.63,1.63,0,0,1,1.8-1.06l32.47,5C234.29,322.12,234.91,320.3,233.89,318.91Z"/><path class="cls-42" d="M233.19,318.73l-28.94-8.24a.76.76,0,0,1-.09-1.44l22.47-9.59a1.19,1.19,0,0,0-.81-2.24L199,305.32c-1.45-1.71-4.27-3.21-5.43-4q-6.07-4.07-12.44-7.64a8.31,8.31,0,0,0-2.57-1.07,1.53,1.53,0,0,0-1.71.6c-.3.68.29,1.4.83,1.9,3.28,3.08,9.68,9.08,12.44,11.65a.93.93,0,0,1-.43,1.59l-31.91,7.26a1.41,1.41,0,0,0,.49,2.77l33.12-4.6a.51.51,0,0,1,.56.61l-6.81,30.2a1.1,1.1,0,0,0,2.1.63l10.4-29a1.63,1.63,0,0,1,1.8-1.06l33.34,5.42A1,1,0,0,0,233.19,318.73Z"/><path class="cls-18" d="M201.5,311.92l-.92.35a8.47,8.47,0,0,1-6,0l-1-.38V289.49h7.95Z"/><g class="cls-40"><path class="cls-15" d="M203.75,312.45c4.76,1.34,9.56,2.54,14.37,3.68,2.41.56,4.83,1.07,7.22,1.69s4.78,1.26,7.14,2l0,.07c-2.46-.36-4.88-.87-7.3-1.38s-4.8-1.19-7.19-1.84c-4.78-1.27-9.54-2.65-14.25-4.19Z"/></g><g class="cls-40"><path class="cls-15" d="M197,316.26l-5,14.58c-.83,2.43-1.62,4.87-2.53,7.27s-1.85,4.79-2.92,7.13l-.07,0c.66-2.49,1.48-4.92,2.28-7.36s1.77-4.82,2.67-7.22l5.45-14.4Z"/></g><polygon class="cls-13" points="233.81 309.38 219.19 311.41 219.12 299.05 231.78 293.34 233.81 309.38"/><path class="cls-20" d="M156.46,276.24l-.23-3.82a.4.4,0,0,1,.26-.39l44.93-16.93,0,0a25.23,25.23,0,0,1,25.55.59.37.37,0,0,0,.14.05l16.26,2.45a.43.43,0,0,1,.17.06c6,3.88,5.23,18.74-1.89,23.08l-35.52,20.56a12,12,0,0,1-12.09,0L160,282A7.15,7.15,0,0,1,156.46,276.24Z"/><path class="cls-43" d="M156.46,276.24l-.23-3.82a.4.4,0,0,1,.26-.39l44.93-16.93,0,0a25.23,25.23,0,0,1,25.55.59.37.37,0,0,0,.14.05l16.26,2.45a.43.43,0,0,1,.17.06c6,3.88,5.23,18.74-1.89,23.08l-35.52,20.56a12,12,0,0,1-12.09,0L160,282A7.15,7.15,0,0,1,156.46,276.24Z"/><path class="cls-42" d="M241.7,273.45l-35.84,20.74a11.41,11.41,0,0,1-11.46,0l-37.71-22,44.76-25a25.22,25.22,0,0,1,25.63.61l4.42,2.76L242,257.12a8.79,8.79,0,0,1,3.87,5.36C246.92,266.62,245.28,271.44,241.7,273.45Z"/><path class="cls-43" d="M245.84,262.48a14.89,14.89,0,0,1-6.89,6.52c-3.32,1.7-7,2.65-10.4,4.12-5.3,2.27-10.06,5.78-15.54,7.6a10.16,10.16,0,0,1-4.8.63c-8-1.34-1.33-10.28,1.82-13.07s6.81-4.89,10-7.64c2.84-2.47,5.24-5.45,8.17-7.84a19.35,19.35,0,0,1,3.33-2.21L242,257.12A8.79,8.79,0,0,1,245.84,262.48Z"/><g class="cls-40"><path class="cls-15" d="M195.5,299.6a7.66,7.66,0,0,0,7.21,1.69c2.34-1.05,4.6-2.41,6.87-3.67,4.53-2.57,9-5.2,13.53-7.84s8.95-5.35,13.47-7.94c1.12-.65,2.3-1.27,3.36-2a17.75,17.75,0,0,0,3-2.43,16.11,16.11,0,0,0,2.35-3,10.72,10.72,0,0,0,1.49-3.55h.08a13.81,13.81,0,0,1-3.51,7,16.5,16.5,0,0,1-3,2.63c-1.11.76-2.23,1.38-3.34,2.07-4.47,2.68-9,5.23-13.56,7.81s-9.08,5.14-13.65,7.64c-2.31,1.22-4.56,2.52-7,3.55a7.82,7.82,0,0,1-7.33-1.86Z"/></g><path class="cls-44" d="M212.4,154c-1,.11-1.46,2.43-1.14,5.18s1.36,4.89,2.31,4.78,1.46-2.43,1.14-5.18S213.35,153.92,212.4,154Zm1.11,9.49c-.44.05-1.46-1.57-1.79-4.36s.28-4.61.73-4.66,1.46,1.57,1.79,4.36S214,163.47,213.51,163.52Z"/><path class="cls-13" d="M212.79,154c-1,.11-1.46,2.43-1.14,5.18s1.36,4.89,2.31,4.78,1.46-2.43,1.14-5.18S213.74,153.88,212.79,154Zm1.11,9.49c-.44.05-1.46-1.57-1.79-4.36s.28-4.61.73-4.66,1.46,1.57,1.79,4.36S214.35,163.43,213.9,163.48Z"/><path class="cls-45" d="M212.84,154.45c-.44.05-1.06,1.86-.73,4.66s1.34,4.42,1.79,4.36,1.06-1.86.73-4.66S213.29,154.4,212.84,154.45Z"/><path class="cls-46" d="M212.79,154c1-.11,2,2,2.31,4.78,0,.38.07.74.08,1.1a6.31,6.31,0,0,0-3.58-3.23C211.73,155.12,212.16,154.06,212.79,154Z"/><path class="cls-42" d="M225,193.75c-8,11.17-25.95,36.53-34.21,31.37-4.64-2.9,6.89-18.33,8.13-18.6.81-.18,10.68-7.63,19.46-17.24l2.2.84a9.69,9.69,0,0,1,2.72,1.71Z"/><path class="cls-15" d="M278.1,322.88a126.35,126.35,0,0,1-13.37-1.72c-2.66-.54-3.95-4.53-5-7.48-2.73.46-9.8,1.72-9.8,1.72s-.07,9.21-.76,10.5c-2.09,3.9-.14,6.86,1.95,7.72,6.11,2.53,10.55-3.34,13.67-3.49,5.86-.29,13.24-1.42,15.69-4.41C280.5,325.71,282,323.44,278.1,322.88Z"/><path class="cls-39" d="M248.77,334.44c.38.49,4.51,2.68,7.1,1.91a62.45,62.45,0,0,0,7-3.38c3.34-1.77,6.77-.8,10.46-1.63a13.17,13.17,0,0,0,5.66-2.26c1.58-1.31,3-4.07,1.46-5.47-.5-.46-2.29,2.74-8.2,3.71-2.57.42-8,.13-10.33,1.22-1.54.71-5.1,3.06-9,2.85s-4.59-3.17-4.59-3.17S247.68,333,248.77,334.44Z"/><g class="cls-40"><path class="cls-15" d="M249.09,333.08a6.49,6.49,0,0,0,3.88,1.4,11.55,11.55,0,0,0,4.12-.6c2.67-.85,5.12-2.35,7.93-3.08s5.7-.63,8.44-1a12.27,12.27,0,0,0,3.94-1.18,7,7,0,0,0,3-2.77l.07,0a6.53,6.53,0,0,1-2.83,3.2,12.1,12.1,0,0,1-4.08,1.47c-2.85.5-5.7.23-8.41.87s-5.21,2.06-8,2.86a11.85,11.85,0,0,1-4.25.47,6.64,6.64,0,0,1-3.91-1.57Z"/></g><path class="cls-12" d="M261.11,241.28c-3.63-2.81-7.93-2.25-11-1.2l-.06-.15-75.22,26.28a19.41,19.41,0,0,0,1.89,7.59c4.43,9.53,13.81,13.41,24.93,12.09a41.75,41.75,0,0,0,10.54-2.82l30.78-12.32,1.16,57.33s14.63-4.9,20.18-10.7l.31-.33S267.65,246.34,261.11,241.28Z"/><path class="cls-41" d="M254.2,266.86c-1.57,2.22-3.56,4.22-4.8,6.61-2.14,4.09-1.75,8.62-1.4,12.83a306.3,306.3,0,0,1,.87,34.93,25.11,25.11,0,0,1-.34,5l-4.46,1.9-1.16-57.34-30.78,12.32a46.07,46.07,0,0,1-6.63,2.13c13.6-9.62,29.6-13.71,43.85-22.07a11,11,0,0,1,3.12-1.46,2.53,2.53,0,0,1,2.79.86C256,263.73,255.15,265.52,254.2,266.86Z"/><path class="cls-47" d="M230.59,275.11c9.57-3,14.82-5.13,22-10.48"/><path class="cls-15" d="M175.26,267.42s-7.22-81.61,19.14-86l1.49-.25c22.09-3.69,25.94,69.24,25.94,69.24C221.41,257.88,197,272.36,175.26,267.42Z"/><path class="cls-14" d="M244.27,208.48c-6.14,12.11-25.33,32.81-34.62,29.42-5.22-1.9-13.22-9.2-10.72-38.12,1.09-12.64,7.31-11.09,9.3-6,2.07,5.32,7.06,20.54,7.55,21.6s1.78,3.13,3.08,3S244.27,208.48,244.27,208.48Z"/><path class="cls-42" d="M249.06,207.52c-6.14,12.11-28.11,31-37.41,27.66-5.22-1.9-13.22-6.81-10.73-35.73,1.09-12.64,5.77-9.93,7.76-4.82,2.07,5.32,8.6,19.37,9.09,20.44a2.33,2.33,0,0,0,2.93,1.3c.79-.32,14.57-2.58,21.78-13.34l2.34.65a4.61,4.61,0,0,1,2.33,1.52Z"/><path class="cls-36" d="M210.58,176.33c-2.18-.07-7.75-1.08-7.75-1.08l.79,8.1a13.22,13.22,0,0,1-11.2.72,9.67,9.67,0,0,1-2.21-1.3V169.84l-7.4-17.24,16.11-2.32h0l12.22-1.76s.35,2,.77,4.89C213.05,161.43,214.65,176.47,210.58,176.33Z"/><path class="cls-48" d="M211.92,153.42a11.48,11.48,0,0,1-3.07.78,43.34,43.34,0,0,0-8.65,2.37c-1.55.61-3.21,1.46-3.76,3-.44,1.25,0,2.63-.17,3.95-.07.75-.55,1.71-1.48,1.38-.69-.25-.83-1.24-1-1.87a12,12,0,0,1,4.85-12.61l.25-.17h0l12.22-1.76S211.5,150.51,211.92,153.42Z"/><path class="cls-48" d="M192.41,184.07a9.67,9.67,0,0,1-2.21-1.3V171.53c.83-.59,1.88-1.41,1.88-1.41S192.24,178.19,192.41,184.07Z"/><path class="cls-13" d="M216.83,139.63c-1.42-2.9-5.64-5.24-8.42-2.92s-2.27,4.44-3.73,5.53c-1.66.15-23.72-4.61-24.63,12-.5,9.14,4.47,14.73,7.58,18.52a22.62,22.62,0,0,1,2.72,3.94l2-6.41s-5.49-3.6-2.6-6.68c1.85-2,3.54-.53,5,.83.29.27.81,0,.78-.47-.1-1.34-.17-2.6-.22-3.8a5.13,5.13,0,0,1,4.13-5.07l4.87-.86s7.82-1.42,10.07-3.66C217.3,147.65,218.44,142.91,216.83,139.63Z"/><g class="cls-30"><path class="cls-12" d="M216.83,139.63c-1.42-2.9-5.64-5.24-8.42-2.92-.26.22-.48.43-.69.64l.19.14c.66.43,1.46.63,2.1,1.08,1.9,1.33,1.71,4.36.31,6.21s-3.61,2.84-5.64,4a37.86,37.86,0,0,0-5.82,4,12.27,12.27,0,0,0-3.67,4.4,8.63,8.63,0,0,0-.13,6c.11.32.25.62.38.93,0,0,0,0,0-.06-.1-1.34-.17-2.6-.22-3.8a5.13,5.13,0,0,1,4.13-5.07l4.87-.86s7.82-1.42,10.07-3.66C217.3,147.65,218.44,142.91,216.83,139.63Z"/></g><path class="cls-48" d="M202.83,175.25c-4.4-1.09-5.74-2-5.74-2a41.2,41.2,0,0,1,6,5.26Z"/><path class="cls-42" d="M190,181.88a11,11,0,0,0,6.72,2.42,15.85,15.85,0,0,0,7-2.18l.36,1.29a12.3,12.3,0,0,1-7.24,2.35,9.64,9.64,0,0,1-7-2.67Z"/><g class="cls-40"><path class="cls-15" d="M213.83,138.13a6.35,6.35,0,0,1,2.67,7.48,7.21,7.21,0,0,1-2.31,3.6,7.62,7.62,0,0,1-3.91,1.64v0a9.71,9.71,0,0,0,3.6-2,7.86,7.86,0,0,0,2.25-3.34,6.13,6.13,0,0,0,.12-4,6.36,6.36,0,0,0-2.43-3.29Z"/></g><g class="cls-40"><path class="cls-15" d="M202.29,144.13c-2.59.19-5.18.28-7.75.59a16.61,16.61,0,0,0-7.25,2.37,10.45,10.45,0,0,0-4.18,6.14,11,11,0,0,0,.64,7.48l0,0a10.23,10.23,0,0,1-1.08-7.63,11.26,11.26,0,0,1,1.61-3.62,10.18,10.18,0,0,1,2.84-2.74,16.92,16.92,0,0,1,7.44-2.29c2.59-.25,5.19-.28,7.78-.4Z"/></g><path class="cls-36" d="M211.93,155.43c1,2.35,2.7,6.13,3.57,7.85a1.14,1.14,0,0,1-.31,1.41c-1,.81-2.79,2.19-3,2.3"/><path class="cls-49" d="M212.6,157a2,2,0,0,0-2,1.06c-.61,1.26,0,.2,0,.2l.13.79s1-1.71,2.24-1.2Z"/><path class="cls-49" d="M208.54,154.63c-1,.11-1.46,2.43-1.14,5.18s1.36,4.89,2.31,4.78,1.46-2.43,1.14-5.18S209.49,154.51,208.54,154.63Zm1.11,9.49c-.44.05-1.46-1.57-1.79-4.36s.28-4.61.73-4.66,1.46,1.57,1.79,4.36S210.1,164.06,209.65,164.12Z"/><path class="cls-13" d="M208.93,154.58c-1,.11-1.46,2.43-1.14,5.18s1.36,4.89,2.31,4.78,1.46-2.43,1.14-5.18S209.88,154.47,208.93,154.58Zm1.11,9.49c-.44.05-1.46-1.57-1.79-4.36s.28-4.61.73-4.66,1.46,1.57,1.79,4.36S210.48,164,210,164.07Z"/><path class="cls-45" d="M209,155c-.44.05-1.06,1.86-.73,4.66s1.34,4.42,1.79,4.36,1.06-1.86.73-4.66S209.42,155,209,155Z"/><path class="cls-50" d="M208.93,154.58c1-.11,2,2,2.31,4.78,0,.38.07.74.08,1.1a6.31,6.31,0,0,0-3.58-3.23C207.86,155.72,208.29,154.66,208.93,154.58Z"/><path class="cls-20" d="M155.49,247.38c.66,6.23,1.1,19.7,5.7,30.37.53,1.24,20.35,15,34.46,22.88,6.21,3.48,14.26-3.67,13.55-10.76a102.69,102.69,0,0,0-5.51-24.57c-8-21.94-.27-36.93-5.49-44.5-2.14-3.1-37.62-22.25-43.22-21.07C143.2,202.22,152.55,219.74,155.49,247.38Z"/><path class="cls-43" d="M155.49,247.38c.66,6.23,1.1,19.7,5.7,30.37.53,1.24,20.35,15,34.46,22.88,6.21,3.48,14.26-3.67,13.55-10.76a102.69,102.69,0,0,0-5.51-24.57c-8-21.94-.27-36.93-5.49-44.5-2.14-3.1-37.61-22.19-43.22-21.07C143.14,202.11,152.55,219.74,155.49,247.38Z"/><path class="cls-20" d="M154.09,248.89c.66,6.23-.54,19.71,4.07,30.38.53,1.24,20.83,12.77,34.95,20.68a8.81,8.81,0,0,0,13.07-8.56,102.69,102.69,0,0,0-5.51-24.57c-8-21.94-.27-36.93-5.49-44.5-2.14-3.1-38.2-23.8-43.22-21.07C146.07,204.46,151.15,221.25,154.09,248.89Z"/><path class="cls-42" d="M189.26,286.51c-7.18-4.1-14.58-8.41-19.39-11.37a9.53,9.53,0,0,1-4.38-6.43,90.72,90.72,0,0,1-1.08-14c-.06-2.62-.11-4.88-.33-6.9-.71-6.72-2.66-17.24-4.27-25.37a5.55,5.55,0,0,1,8.21-5.89c4.57,2.61,9.14,5.36,12.79,7.69A13.36,13.36,0,0,1,187,236.11v.08c-.37,8.41-.87,19.92,4.26,34.06a110.14,110.14,0,0,1,3.61,12.1A3.79,3.79,0,0,1,189.26,286.51Z"/><path class="cls-18" d="M174,277.64c-1.53-.9-2.93-1.75-4.15-2.5a9.53,9.53,0,0,1-4.38-6.42,91.72,91.72,0,0,1-1.08-14c-.06-2.62-.11-4.89-.32-6.9-.71-6.72-2.67-17.24-4.27-25.37a5.54,5.54,0,0,1,8.21-5.88l.07,0a6.1,6.1,0,0,0-1.76,5.66c1.8,9.1,4,20.88,4.78,28.4.25,2.27.3,4.79.37,7.73a101.59,101.59,0,0,0,1.21,15.67A10.79,10.79,0,0,0,174,277.64Z"/><g class="cls-40"><path class="cls-15" d="M187.23,218.87c1.43,1.19,3,2.2,4.47,3.37a10.08,10.08,0,0,1,3.33,4.48,16.65,16.65,0,0,1,.88,5.55c0,1.88-.07,3.75-.2,5.61a67.68,67.68,0,0,0-.29,11.14A69.5,69.5,0,0,0,197.53,260c1.95,7.19,4.58,14.21,6.08,21.58a47.92,47.92,0,0,1,1,11.21,9.1,9.1,0,0,1-1.91,5.31,5.22,5.22,0,0,1-5.1,1.86l0-.07a5,5,0,0,0,4.81-2,8.7,8.7,0,0,0,1.65-5.12,49.45,49.45,0,0,0-1.24-11c-.74-3.64-1.77-7.22-2.84-10.8s-2.15-7.15-3.08-10.78a70,70,0,0,1-2-11,68.05,68.05,0,0,1,.39-11.22c.15-1.86.28-3.72.27-5.58a16.53,16.53,0,0,0-.79-5.47,9.88,9.88,0,0,0-3.2-4.44c-1.43-1.19-3-2.22-4.42-3.44Z"/></g></g></g></svg>