<svg xmlns="http://www.w3.org/2000/svg" viewBox="0 0 500 415.48"><defs><style>.cls-1{fill:#475558;}.cls-2{fill:#282c34;}.cls-3{fill:#6cb54b;}.cls-4{fill:#dfac52;}.cls-5{fill:#d6675c;}.cls-6,.cls-7,.cls-8{fill:#bcbcbc;}.cls-7{font-size:12.83px;}.cls-7,.cls-8{font-family:FranklinGothic-Book, Franklin Gothic Book;}.cls-8{font-size:8.02px;letter-spacing:0.08em;}.cls-9{letter-spacing:0.06em;}</style></defs><title>code-editor</title><g id="Layer_4" data-name="Layer 4"><g id="editor"><rect class="cls-1" x="6.92" y="7.28" width="486.04" height="392.48" rx="9.94" ry="9.94"/><path class="cls-2" d="M6.92,36.27H21.51a2.42,2.42,0,0,0,2.35-1.82l.27-13.68a3.86,3.86,0,0,1,3.64-2.55h104a3.82,3.82,0,0,1,3.6,2.52l.31,13.84a2.24,2.24,0,0,0,2.18,1.68H493V397.86a3.05,3.05,0,0,1-3.06,3H10a3.05,3.05,0,0,1-3.06-3Z"/><circle class="cls-3" cx="444.34" cy="22.23" r="5.12"/><circle class="cls-4" cx="460.65" cy="22.23" r="5.12"/><circle class="cls-5" cx="476.69" cy="22.23" r="5.12"/><path class="cls-6" d="M35.29,25.33l-1.4-1.4a.8.8,0,0,0-.57-.24H29.92a.8.8,0,0,0-.8.8v7a.8.8,0,0,0,.8.8h4.81a.8.8,0,0,0,.8-.8V25.9A.81.81,0,0,0,35.29,25.33Zm-.63.5H33.39V24.56Zm-4.75,5.61v-7h2.67v1.74a.4.4,0,0,0,.4.4h1.74v4.81Z"/><text class="cls-7" transform="translate(125.16 30.38)">x</text><text class="cls-8" transform="translate(43.01 30.98)">ind<tspan class="cls-9" x="12.43" y="0">e</tspan><tspan x="17.11" y="0">x.html</tspan></text></g></g></svg>