<svg xmlns="http://www.w3.org/2000/svg" xmlns:xlink="http://www.w3.org/1999/xlink" viewBox="0 0 1000 530"><defs><style>.cls-1,.cls-14,.cls-15,.cls-20{fill:none;}.cls-2{isolation:isolate;}.cls-3{fill:#b5eaea;}.cls-4{fill:#fbc0a4;}.cls-5{fill:#f8e8d8;}.cls-6{fill:#403433;}.cls-7{fill:#623a33;}.cls-8{fill:#f69d7d;}.cls-9{fill:#f9b092;}.cls-10{fill:#fff;}.cls-11{fill:#fcc5a7;}.cls-12{fill:#bac2ce;}.cls-13{fill:#10171c;}.cls-14{stroke:#bac2ce;stroke-linecap:round;stroke-linejoin:round;stroke-width:1.39px;}.cls-15{stroke:#183145;stroke-width:3px;}.cls-15,.cls-20{stroke-miterlimit:10;}.cls-16{fill:#efc99a;}.cls-17{fill:#fcd2a4;}.cls-18,.cls-27,.cls-43{mix-blend-mode:multiply;}.cls-19{fill:#7a3d14;}.cls-20{stroke:#efc99a;stroke-width:2px;}.cls-21{fill:#5b2b0a;}.cls-22{fill:#097189;}.cls-23,.cls-27{fill:#ffb495;}.cls-24{fill:#fc9e81;}.cls-25{fill:#f5c4b3;}.cls-26{fill:#dcf5f9;}.cls-27{opacity:0.3;}.cls-28{fill:url(#linear-gradient);}.cls-29{fill:#3f0f1b;}.cls-30{fill:#561326;}.cls-31{fill:url(#linear-gradient-2);}.cls-32{fill:#832621;}.cls-33{clip-path:url(#clip-path);}.cls-34{fill:#d14a4a;}.cls-35{fill:url(#linear-gradient-3);}.cls-36{fill:url(#linear-gradient-4);}.cls-37{fill:url(#linear-gradient-5);}.cls-38{fill:url(#linear-gradient-6);}.cls-39{fill:url(#linear-gradient-7);}.cls-40{fill:url(#linear-gradient-8);}.cls-41{fill:url(#linear-gradient-9);}.cls-42{fill:#183145;}.cls-43{opacity:0.5;}</style><linearGradient id="linear-gradient" x1="969.22" y1="256.99" x2="975.13" y2="256.99" gradientUnits="userSpaceOnUse"><stop offset="0" stop-color="#ffaa8b"/><stop offset="1" stop-color="#ffaa8b" stop-opacity="0"/></linearGradient><linearGradient id="linear-gradient-2" x1="931.37" y1="256.8" x2="937.28" y2="256.8" gradientUnits="userSpaceOnUse"><stop offset="0" stop-color="#ffaa8b" stop-opacity="0"/><stop offset="1" stop-color="#ffaa8b"/></linearGradient><clipPath id="clip-path"><path class="cls-1" d="M960.7,265.19c-.26-.28-3.43-.44-7.52-.44s-7.26.16-7.52.44,1.51,6.64,7.52,6.64S961,265.37,960.7,265.19Z"/></clipPath><linearGradient id="linear-gradient-3" x1="952.93" y1="261.1" x2="952.93" y2="248.35" gradientUnits="userSpaceOnUse"><stop offset="0" stop-color="#ffaa8b" stop-opacity="0.7"/><stop offset="0.1" stop-color="#ffaa8b" stop-opacity="0.58"/><stop offset="0.29" stop-color="#ffaa8b" stop-opacity="0.38"/><stop offset="0.47" stop-color="#ffaa8b" stop-opacity="0.21"/><stop offset="0.63" stop-color="#ffaa8b" stop-opacity="0.1"/><stop offset="0.77" stop-color="#ffaa8b" stop-opacity="0.03"/><stop offset="0.87" stop-color="#ffaa8b" stop-opacity="0"/></linearGradient><linearGradient id="linear-gradient-4" x1="1682.12" y1="254.13" x2="1677.72" y2="254.13" gradientTransform="translate(-735.88)" gradientUnits="userSpaceOnUse"><stop offset="0" stop-color="#248157"/><stop offset="1" stop-color="#24816a" stop-opacity="0"/></linearGradient><linearGradient id="linear-gradient-5" x1="1681.13" y1="254.13" x2="1678.7" y2="254.13" xlink:href="#linear-gradient-4"/><linearGradient id="linear-gradient-6" x1="939.95" y1="255.76" x2="946.96" y2="255.76" xlink:href="#linear-gradient-3"/><linearGradient id="linear-gradient-7" x1="-271.9" y1="254.13" x2="-276.29" y2="254.13" gradientTransform="matrix(-1, 0, 0, 1, 688.24, 0)" xlink:href="#linear-gradient-4"/><linearGradient id="linear-gradient-8" x1="-272.88" y1="254.13" x2="-275.31" y2="254.13" gradientTransform="matrix(-1, 0, 0, 1, 688.24, 0)" xlink:href="#linear-gradient-4"/><linearGradient id="linear-gradient-9" x1="966.42" y1="255.76" x2="959.41" y2="255.76" xlink:href="#linear-gradient-3"/></defs><title>materi</title><g class="cls-2"><g id="Layer_1" data-name="Layer 1"><rect class="cls-3" width="1000" height="530"/><circle class="cls-4" cx="72.88" cy="316.51" r="7.85"/><circle class="cls-4" cx="77.12" cy="353.94" r="6.65"/><path class="cls-4" d="M65.28,318.48c2.76,12.76,5,32.61,5.19,35.47H83.78s-.06-28.58-3.35-39.58Z"/><circle class="cls-4" cx="86.28" cy="386.29" r="3.45" transform="translate(-94.53 34.19) rotate(-14.59)"/><path class="cls-4" d="M82.94,387.16c0,2.6-4.33,5.18-5.32,7s.67,4,.67,4a16.69,16.69,0,0,0,.48,3.49c.4,1.21,1.77,1.28,3.07.07s2,.73,3.71.31,2.13-2,4.23-1.25,0-14.53,0-14.53Z"/><circle class="cls-4" cx="77.12" cy="353.94" r="6.65" transform="translate(-86.68 30.85) rotate(-14.59)"/><circle class="cls-4" cx="86.28" cy="386.29" r="3.45" transform="translate(-94.53 34.19) rotate(-14.59)"/><path class="cls-4" d="M82.94,387.16c-.74-4.39-4.68-12.32-7.93-19.86a97.64,97.64,0,0,1-4.33-11.68l12.88-3.35s5.93,29.6,6.16,33.94Z"/><path class="cls-5" d="M70,347.22c-.93-6.51-2.86-20.31-4.68-28.74h0a7.84,7.84,0,0,1,15.14-4.12h0c2,6.53,3.35,16.6,5,28.43C81.29,345.29,71.35,347,70,347.22Z"/><path class="cls-6" d="M34.77,506.43l1.38-7.4,8.43,1.23-.45,6.94a6.77,6.77,0,0,1-6,3.18C33.69,510.46,34.77,506.43,34.77,506.43Z"/><polygon class="cls-6" points="70.52 501.73 71.02 507.74 73.14 511.65 79.81 509.44 80.75 504.98 80.37 498.05 70.52 501.73"/><path class="cls-6" d="M97.73,511.94c-2.3-1.08-9.42-3.15-14.71-6.95a2.53,2.53,0,0,0-1.93-.45l-.36.07a5.2,5.2,0,0,1-3.6,4.36c-2.28.77-6.11-1.23-6.11-1.23l.45,8.53H98.93a1.34,1.34,0,0,0,.62-.88S100.66,513.31,97.73,511.94Z"/><path class="cls-6" d="M42.29,507.63C39,504.5,36,507.14,36,507.14l-1.26-.71c-1.83,2.74-5.34,6-5.78,7.63-.84,3,.65,6.6,5.57,6.6s9.41-2.93,9.93-5.31c.31-1.42-.2-5.28-.35-8.14Z"/><circle class="cls-7" cx="38.5" cy="383.47" r="11.45"/><path class="cls-7" d="M28.61,443.06l3,61.91s8.2,2.36,15.41.26l1-62.17Z"/><polygon class="cls-7" points="48.02 443.06 49.95 383.47 27.05 383.47 28.61 443.06 48.02 443.06"/><circle class="cls-7" cx="38.32" cy="443.06" r="9.71"/><circle class="cls-7" cx="62.48" cy="383.47" r="11.45" transform="translate(-43.67 9.73) rotate(-6.6)"/><path class="cls-7" d="M59.48,443.54l8.36,61.41s8.37,1.63,15.38-1.08l-4.4-62Z"/><polygon class="cls-7" points="78.79 441.57 73.86 382.15 51.1 384.79 59.5 443.8 78.79 441.57"/><circle class="cls-7" cx="69.15" cy="442.69" r="9.71" transform="translate(-38.38 7.73) rotate(-5.01)"/><path class="cls-7" d="M74,372H27v11.53h0A11.45,11.45,0,0,0,38.5,394.92h24a11.4,11.4,0,0,0,11.45-11.37h0Z"/><path class="cls-7" d="M74,372H27v11.53h0A11.45,11.45,0,0,0,38.5,394.92h24a11.4,11.4,0,0,0,11.45-11.37h0Z"/><circle class="cls-5" cx="72.88" cy="316.51" r="7.85" transform="translate(-153.26 83.37) rotate(-31.16)"/><circle class="cls-5" cx="22.32" cy="318.44" r="7.85"/><path class="cls-5" d="M23.79,323l5.16,25.48L25,380.72s25,9.46,50.59,1.51c0,0-1.34-37.23-3.74-66.42l6.43-5c-5.65-5.24-25.48-12.18-31-11.3-8.75,1.38-30.47,11.64-31.12,14.1Z"/><g id="_Group_" data-name="&lt;Group&gt;"><g id="_Group_2" data-name="&lt;Group&gt;"><path class="cls-4" d="M41.82,301.75l-2-19.15L54.44,290l-.14.7-.41,9.63c-.12,2.75,0,5.54-2.9,6h0C47.53,306.93,42.15,304.93,41.82,301.75Z"/></g></g><g id="_Group_3" data-name="&lt;Group&gt;"><g id="_Group_4" data-name="&lt;Group&gt;"><path class="cls-8" d="M54.05,296.71l.25-6,.14-.7-14.6-7.43.93,9C43.39,295.56,48.54,296.73,54.05,296.71Z"/></g></g><path class="cls-4" d="M64.17,274.69c-.06-4.56.21-11.12-1.61-15.9h0a9.36,9.36,0,0,0-3.85-4.92c-2-1.44-4.79-2.37-9-2.71-8.79-.7-14.5,2.59-18.32,8.31-2.85,4.26-1.63,9.86-1.05,11.88-1.62.15-3.88,1.13-3.37,5.58.79,6.8,5.71,6.93,7.16,7.23,0,0,2.71,12.11,17.64,10.95S64.28,282.35,64.17,274.69Z"/><path class="cls-6" d="M64.66,259.7c4-3.43,6.37-8.23,4.93-13.78-2.17,1-4.22,1.78-6.39,2.76,2.27-2.05,2.77-3.91,2.6-6.82,0,0-26.91,5.77-32.63,10.14A9,9,0,0,0,30,255.79l-4.09-5s-2.44,6.07,2.33,8.16a6.28,6.28,0,0,0-2.47,3.78c-1.32,5.17,2.53,9.34,2.53,9.34a3.89,3.89,0,0,1,3.41-.33c1.73.61,3.67,3.7,3.58,6.76l1.59-.21-.21-6.43s2.11-1.56,3.93-6.92a15.91,15.91,0,0,0,8.94,1.67l-5-4.83a22.49,22.49,0,0,0,13.6,4.76c5.55.27,11.44-2.13,14.26-6.91C70.07,259.74,67.05,259.57,64.66,259.7Z"/><path class="cls-8" d="M53.89,279.91a.51.51,0,0,1,.16.62,1.49,1.49,0,0,1-1.87.89c-.28-.12-.41-.33-.38-.52.09-.39.5-.63.88-.83A1.52,1.52,0,0,1,53.89,279.91Z"/><path class="cls-6" d="M49.69,267.65l0,0c-1.31-.66-5.38-.17-8.12,1.31a1.72,1.72,0,0,0,1.36,1.58,5,5,0,0,0,2.22-.08c1.29-.25,2.47-.64,3.71-1A1.28,1.28,0,0,0,49.69,267.65Z"/><path class="cls-6" d="M54.57,267.59h0a9.26,9.26,0,0,1,7.45.79A1.83,1.83,0,0,1,60.77,270a4.24,4.24,0,0,1-2,.06c-1.13-.16-2.17-.45-3.25-.68A1.28,1.28,0,0,1,54.57,267.59Z"/><circle class="cls-6" cx="45.9" cy="274.37" r="1.95" transform="translate(-230.27 307.75) rotate(-87.39)"/><circle class="cls-6" cx="56.27" cy="274.37" r="1.95" transform="translate(-220.37 318.11) rotate(-87.39)"/><circle class="cls-9" cx="60.16" cy="280.99" r="3.68" transform="translate(-12.71 3.03) rotate(-2.61)"/><circle class="cls-9" cx="41.5" cy="281.51" r="3.68" transform="translate(-12.76 2.18) rotate(-2.61)"/><path class="cls-9" d="M28.93,274.44c-.52,1.8.22,3.7.94,5.42a2.94,2.94,0,0,0,.91,1.37,1,1,0,0,0,1.45-.24c.23-.49-.11-1-.38-1.5s-.42-1.17,0-1.46c.21-.14.49-.12.71-.24.48-.25.48-.94.35-1.47a8.23,8.23,0,0,0-.81-2.11c-.36-.65-.92-1.31-1.66-1.3S29.14,273.69,28.93,274.44Z"/><path class="cls-8" d="M54.11,284.24c.1.16-.18.56-.86.88a4.13,4.13,0,0,1-5.17-1.65c-.37-.66-.36-1.14-.19-1.22.35-.16,1.25,1.16,2.89,1.66S53.91,283.9,54.11,284.24Z"/><path class="cls-10" d="M41.5,298.67s7.43,8.25,9.5,7.7,3-7.84,3-7.84,4.52,1,5,1.86.78,9.56-.73,11.14-6.47-2.87-6.47-2.87-4.25,5.51-6.62,5-7.8-11-8.15-12.28S41.5,298.67,41.5,298.67Z"/><circle class="cls-4" cx="22.32" cy="318.44" r="7.85"/><circle class="cls-4" cx="18.07" cy="355.87" r="6.65"/><path class="cls-4" d="M29.92,320.41c-2.76,12.76-5,32.61-5.19,35.47H11.42s.06-28.58,3.35-39.58Z"/><circle class="cls-4" cx="17.36" cy="389.48" r="3.45"/><path class="cls-4" d="M20.81,389.48c.68,2.51,5.49,3.93,6.91,5.42s.35,4,.35,4a16.68,16.68,0,0,1,.41,3.5c-.08,1.28-1.39,1.69-3,.84s-1.73,1.2-3.51,1.24-2.56-1.39-4.41-.15S14,390.27,14,390.27Z"/><circle class="cls-4" cx="18.07" cy="355.87" r="6.65"/><circle class="cls-4" cx="17.36" cy="389.48" r="3.45"/><path class="cls-4" d="M20.81,389.48c-.39-4.43,1.42-13.1,2.67-21.21a97.62,97.62,0,0,0,1.25-12.39H11.42S13.14,386,14,390.27Z"/><path class="cls-5" d="M26.56,349.13s1.53-20.3,3.36-28.72h0a7.84,7.84,0,0,0-15.14-4.12h0c-2,6.53-5.7,17.44-5.7,28.29C9.07,344.58,18.07,349.94,26.56,349.13Z"/><path class="cls-11" d="M932,498s1.05,10.66.48,12.2c-.2.53-6.11,3.56-6.11,3.56l0,6.12,11.57-2.17,3.65-1.56.23-1.63a21.08,21.08,0,0,1-.64-4.6c.14-1.38.9-11.93.9-11.93"/><path class="cls-12" d="M941.36,513.62c1,.16.59,1.92,1,4.73a19,19,0,0,1-.14,4.94c-1.9,1.7-6.95.68-7.75.65-4.84-.17-10.26,1.22-16.09.44-1.14-.15-3.36-.28-3.89-2.43a14.79,14.79,0,0,1,0-1.74s11.18-4.9,14.59-6.79c.69-.38,1.29-1.32,1.8-1.32s1,1.39,1.44,1.69c2.11,1.48,5.45,1.38,7.47.94C940.68,514.53,941.06,513.57,941.36,513.62Z"/><path class="cls-13" d="M941.36,512.26c1,.16.59,1.92,1,4.73a19.07,19.07,0,0,1,.07,4.94c-1.9,1.7-7.16.67-8,.65-4.84-.17-10.4.92-16.09.44-1.19-.1-3.36-.65-3.89-2.8-.45-1.83,10.58-5.93,14.59-8.15.69-.38,1.29-1.32,1.8-1.32s1,1.39,1.44,1.69c2.11,1.48,5.45,1.38,7.47.94C940.68,513.16,941.06,512.21,941.36,512.26Z"/><path class="cls-14" d="M923.47,514.48a3.41,3.41,0,0,1,1.37,1,10.19,10.19,0,0,1,1,1.45"/><path class="cls-14" d="M926,513.15c1,.06,2.41,1.74,2.52,3.06"/><path class="cls-14" d="M928.27,512.18a3.23,3.23,0,0,1,1.62,1.31,5.31,5.31,0,0,1,.74,2"/><path class="cls-14" d="M930.88,510.74a12.28,12.28,0,0,0,1.44,1.69c2.11,1.48,5.45,1.38,7.47.94.88-.2,1.26-1.15,1.56-1.1"/><path class="cls-11" d="M974.4,498s-1.05,10.66-.48,12.2c.2.53,6.11,3.56,6.11,3.56l0,6.12L968.5,517.7l-3.65-1.56-.23-1.63a21.08,21.08,0,0,0,.64-4.6c-.14-1.38-.9-11.93-.9-11.93"/><path class="cls-12" d="M965.08,513.62c-1,.16-.59,1.92-1,4.73a19,19,0,0,0,.14,4.94c1.9,1.7,6.95.68,7.75.65,4.84-.17,10.26,1.22,16.09.44,1.14-.15,3.36-.28,3.89-2.43a14.81,14.81,0,0,0,0-1.74s-11.18-4.9-14.59-6.79c-.69-.38-1.29-1.32-1.8-1.32s-1,1.39-1.44,1.69c-2.11,1.48-5.45,1.38-7.47.94C965.76,514.53,965.38,513.57,965.08,513.62Z"/><path class="cls-13" d="M965.08,512.26c-1,.16-.59,1.92-1,4.73a19.07,19.07,0,0,0-.07,4.94c1.9,1.7,7.16.67,8,.65,4.84-.17,10.4.92,16.09.44,1.19-.1,3.36-.65,3.89-2.8.45-1.83-10.58-5.93-14.59-8.15-.69-.38-1.29-1.32-1.8-1.32s-1,1.39-1.44,1.69c-2.11,1.48-5.45,1.38-7.47.94C965.76,513.16,965.38,512.21,965.08,512.26Z"/><path class="cls-14" d="M983,514.48a3.41,3.41,0,0,0-1.37,1,10.18,10.18,0,0,0-1,1.45"/><path class="cls-14" d="M980.44,513.15c-1,.06-2.41,1.74-2.52,3.06"/><path class="cls-14" d="M978.17,512.18a3.23,3.23,0,0,0-1.62,1.31,5.32,5.32,0,0,0-.74,2"/><path class="cls-14" d="M975.55,510.74a12.27,12.27,0,0,1-1.44,1.69c-2.11,1.48-5.45,1.38-7.47.94-.88-.2-1.26-1.15-1.56-1.1"/><path class="cls-15" d="M929.43,350.62s-6,7.88-7.51,11.13"/><path class="cls-16" d="M979.2,384.41c0-10.45-2.67-24.86-2.67-24.86s-43.08-11.93-46-.8c-2.62,9.88-2.64,18.34-3,25.75-.11,2.42,3.83,123.32,3.83,123.32h10.14s2-16,4-36.51c0-.13,0-.27,0-.42,0-.35.07-.7.1-1.07s.07-.66.09-1c.89-10.26,1.11-23.42,1.11-23.42,2-12.93,5.52-41.59,6.62-53.5,0,0,4,40.57,6.05,53.5,0,0,.22,13.15,1.11,23.42,0,.33.07.66.09,1s.07.72.1,1.07c0,.15,0,.29,0,.42,2.06,20.56,3.71,36.51,3.71,36.51H974S979.21,395.91,979.2,384.41Z"/><rect class="cls-17" x="930.58" y="504.92" width="11.88" height="3.28" rx="0.91" ry="0.91"/><rect class="cls-17" x="963.17" y="504.92" width="11.88" height="3.28" rx="0.91" ry="0.91"/><g class="cls-18"><path class="cls-16" d="M939.25,359.74a14.68,14.68,0,0,1-3.78,7.39,18.75,18.75,0,0,1-1.54,1.45,15,15,0,0,1-1.75,1.19,12.66,12.66,0,0,1-3.9,1.5,28,28,0,0,0,3.47-2.15,19.37,19.37,0,0,0,3-2.67,23.77,23.77,0,0,0,2.49-3.15A29.93,29.93,0,0,0,939.25,359.74Z"/></g><g class="cls-18"><path class="cls-16" d="M967.3,359.49a29.93,29.93,0,0,0,2,3.56,23.77,23.77,0,0,0,2.49,3.15,19.37,19.37,0,0,0,3,2.67,28,28,0,0,0,3.47,2.15,12.66,12.66,0,0,1-3.9-1.5,15,15,0,0,1-1.75-1.19,18.75,18.75,0,0,1-1.54-1.45A14.68,14.68,0,0,1,967.3,359.49Z"/></g><g class="cls-18"><path class="cls-16" d="M950.37,375q.32,2.17.5,4.33c.14,1.44.22,2.88.37,4.3a10.09,10.09,0,0,0,.35,2c.17.68.4,1.36.61,2.05.44,1.37.87,2.75,1.27,4.16a31.25,31.25,0,0,1-2-3.88c-.3-.67-.55-1.35-.79-2.06a10.29,10.29,0,0,1-.43-2.21A42.92,42.92,0,0,1,950.37,375Z"/></g><path class="cls-19" d="M929.65,362.3s15.55,2.24,47.36,0a3.09,3.09,0,0,0-.47-2.75c-1-1.26-41.33-1.18-41.49-1.18s-4.83-.33-4.83-.33S928.92,361.14,929.65,362.3Z"/><path class="cls-20" d="M936.12,358.37a18.61,18.61,0,0,0-.31,5.38"/><path class="cls-20" d="M967.54,358.37a18.61,18.61,0,0,1,.31,5.38"/><rect class="cls-21" x="948.15" y="358.68" width="9.88" height="5.44" rx="1.2" ry="1.2"/><path class="cls-22" d="M955.36,293.76h-4.49s-3.69,35.6-2.4,46.16c.45,3.69,3.34,13.61,4.64,13.61s4.19-9.93,4.64-13.61C959,329.36,955.36,293.76,955.36,293.76Z"/><path class="cls-22" d="M953.1,286.72l-4,2.62s.54,3.74,1.49,4.42,4.07.82,5,0,1.49-4.42,1.49-4.42Z"/><path class="cls-23" d="M962.28,280.67c-.22-.63-.69-2.71-.55-8.77H944.48c.14,6.05-.33,8.13-.55,8.77l-8.18,2.87,17.36,6.89,17.36-6.89Z"/><path class="cls-24" d="M987.52,389.73a15.16,15.16,0,0,1,1.06,3.21,13.72,13.72,0,0,1-.53,3.76c-.33.63-2.33,3-2.52,3.4s-.34,1.43,0,1.53c.5.15,3.56-2.82,3.56-2.82l2.35-5s-.31-3.09-.39-3.29-1.64-2.66-1.64-2.66"/><path class="cls-25" d="M992.24,386c.75,3.32,1.51,7.84,1.28,9.2a43,43,0,0,1-2.41,5.88s-4,3.32-4.52,3.39-.68-1.24,0-2.07a39.77,39.77,0,0,0,2.75-3.13,33.05,33.05,0,0,0,.51-4.67c0-.64-1.53-3.05-2.47-3s-1.47,1.77-1.47,2.45a7.52,7.52,0,0,1-.57,2.79c-.34.53-1.21.75-1.55.34s-.6-4.18-.6-4.94,1.94-5.48,2.13-6.53-1.1-9.87-1.1-9.87l7.53-.79S991.49,382.64,992.24,386Z"/><path class="cls-25" d="M979.54,293.08s4.6-5.18,6.13,2c1.42,6.66,5.19,30.39,7.43,44.17a34.52,34.52,0,0,1,.44,6c-.09,6.87-.48,23.93-2.12,38a22.43,22.43,0,0,1-6.26,0s-3.41-28.75-3.41-39.86c0,0-8.17-27-8.17-41A9.83,9.83,0,0,1,979.54,293.08Z"/><path class="cls-11" d="M941.51,325.24s4-1.9,5.16-3.13,3.5-5,4.42-6.43a8.34,8.34,0,0,1,2.7-3c1.11-.62,3.72-1.82,4.66-2.44s1.67-1.2,1.89-1.15a1.06,1.06,0,0,1,.24,1.53,12.77,12.77,0,0,1-2.5,2.29c-.86.63-1.46,1.19-1.27,1.21s2.83-1.74,3.33-2a10.78,10.78,0,0,0,2.4-2c.39-.54.86-3.39,1.38-3.54s.76.39.92,1.07a8,8,0,0,1,.09,2.05,5,5,0,0,1-.13.88,5.61,5.61,0,0,1,.84,1.1,3,3,0,0,1-.07,1.56,1.41,1.41,0,0,1,.74.71,2.94,2.94,0,0,1-.69,2.4,2.37,2.37,0,0,1,0,1.61c-.36.55-2.37,2.4-2.92,3s-5.48,2.5-8.13,3.67-9.59,6.27-9.59,6.27Z"/><path class="cls-26" d="M965.61,281.84V282A1.1,1.1,0,0,0,965.61,281.84Z"/><path class="cls-27" d="M944.51,273.76s3.54,4.05,8.42,4.05,9.06-3.51,9.06-3.51l-9.3-.54Z"/><path class="cls-25" d="M974.76,258.35c-.51,1.58-4.18,5.22-5.54,2.68l.88-8.38h0a4.19,4.19,0,0,1,2.86-.45,2.39,2.39,0,0,1,.41.16C975.44,253.37,975.35,256.5,974.76,258.35Z"/><path class="cls-28" d="M974.76,258.35c-.51,1.58-4.18,5.22-5.54,2.68l.88-8.38h0a4.19,4.19,0,0,1,2.86-.45,2.39,2.39,0,0,1,.41.16C975.44,253.37,975.35,256.5,974.76,258.35Z"/><path class="cls-25" d="M935.77,246.39s1.39,14.1,1.82,17.2,3.63,12.6,16.24,12.28c9.08-.43,14.85-3.1,15.81-16s1-16.56,1-16.56l-2.88-8.76-2.88-4.06-10.47-1.07-9.08.11-6,.64-1.17,3.74Z"/><path class="cls-29" d="M973,252.18a4.19,4.19,0,0,0-2.86.45l0-5.83a7.34,7.34,0,0,0-.95-3.57L965.61,237a11.33,11.33,0,0,0,2.43-3,12.65,12.65,0,0,0,1.65-5.24,45.24,45.24,0,0,1,5.39,6.48C975.42,236.44,973.9,248.8,973,252.18Z"/><path class="cls-29" d="M969.69,228.77A12.65,12.65,0,0,1,968,234a11.33,11.33,0,0,1-2.43,3h0l-.16-.29h0l-.45-.06-3.82-.54-.83-.11c-2.75-.37-6.48-.87-10.9-1.43-.54.61-1.07,1.14-1.57,1.61h0l-.54.49c-4.33,3.78-7.15,2.86-9.9,2.56-.25,2.44-1,12.2-1,13.32v-.08a3.83,3.83,0,0,0-3.29-.3l-.29.17c-.29-2-1.87-13-1.73-13.67a19.61,19.61,0,0,1,3.56-7c-1.4.64-1.73.3-1.73.3s.71-.35,3.08-3.19a17,17,0,0,1,10.62-6,17.62,17.62,0,0,1,4.68.13,110,110,0,0,1,14.65,3.49,9.73,9.73,0,0,1,3.64,2.24Z"/><path class="cls-29" d="M936.41,252.54v.11c-1.54-1.18-3.54,0-3.54,0l0-.31.29-.17a3.83,3.83,0,0,1,3.29.3Z"/><path class="cls-29" d="M947.72,228.06s-3.75,5,1.55,9.54a10.16,10.16,0,0,0,5.09,1.82,16.93,16.93,0,0,0,7-.47c6.2-1.81,9.63-8.94,7.84-15A11,11,0,0,0,968,221.4a6,6,0,0,1-1.51,3.32c.33-1,.46-4-.34-5.3a11.53,11.53,0,0,1-8.81,4.27c.87-.57,1.13-2.33,1.09-3.37-.38.91-5.76,2.4-7.16,2.63Z"/><path class="cls-30" d="M969.69,228.77A12.65,12.65,0,0,1,968,234a11.33,11.33,0,0,1-2.43,3h0a10.59,10.59,0,0,1-1.43,1,11.94,11.94,0,0,1-5.3,1.68,17.75,17.75,0,0,1-2.77,0l-1.37-.17-1.34-.27,1.36.09,1.36,0a18,18,0,0,0,2.69-.19,13,13,0,0,0,5-1.74,10.17,10.17,0,0,0,1.17-.81,12.43,12.43,0,0,0,2.6-2.89,13.49,13.49,0,0,0,1.25-2.38,13.32,13.32,0,0,0,.53-1.44C969.49,229.54,969.6,229.16,969.69,228.77Z"/><path class="cls-30" d="M964.37,231.14a13.11,13.11,0,0,1-1.93,3.52,12.9,12.9,0,0,1-2.92,2.82,9.58,9.58,0,0,1-3.76,1.56,9.3,9.3,0,0,1-4-.16h1a4.49,4.49,0,0,0,1,0l1-.1.95-.22a10.82,10.82,0,0,0,3.49-1.6,15.94,15.94,0,0,0,2.89-2.59A22.19,22.19,0,0,0,964.37,231.14Z"/><path class="cls-30" d="M944.53,230.61a8.13,8.13,0,0,0,.54,3.45,4.62,4.62,0,0,0,.92,1.42,9.68,9.68,0,0,0,1.35,1.18,4,4,0,0,1-1.71-.79,4.1,4.1,0,0,1-.69-.69,4.79,4.79,0,0,1-.49-.85,4.49,4.49,0,0,1-.36-1.89A4.28,4.28,0,0,1,944.53,230.61Z"/><path class="cls-30" d="M947.26,229a7.48,7.48,0,0,0-.64,3.65,6.26,6.26,0,0,0,.43,1.77c.09.3.26.57.38.86s.32.56.46.86a7,7,0,0,1-.73-.67,5.11,5.11,0,0,1-.58-.82,4.71,4.71,0,0,1-.38-4A4.19,4.19,0,0,1,947.26,229Z"/><path class="cls-25" d="M936.4,252.45a3.82,3.82,0,0,0-3.29-.3c-2,1-2,4.16-1.37,6,.51,1.58,4.18,5.22,5.54,2.67"/><path class="cls-31" d="M937.28,260.83c-1.36,2.54-5-1.09-5.54-2.67-.56-1.76-.67-4.67,1.07-5.83l.29-.17a3.83,3.83,0,0,1,3.29.3v.08Z"/><path class="cls-29" d="M948.31,247.62s.11-2.24-1-2.35-8.06-1.39-8.22,4.27C940.51,248.2,942.7,246.82,948.31,247.62Z"/><path class="cls-29" d="M958.06,247.62s-.11-2.24,1-2.35,8.06-1.39,8.22,4.27C965.86,248.2,963.67,246.82,958.06,247.62Z"/><path class="cls-32" d="M960.7,265.19c-.26-.28-3.43-.44-7.52-.44s-7.26.16-7.52.44,1.51,6.64,7.52,6.64S961,265.37,960.7,265.19Z"/><g class="cls-33"><path class="cls-34" d="M959.71,269.59c-1.64,2.56-4.07,5-6.73,4.89-2.89-.11-5-2.43-6.31-4.64C948.92,267.86,954.89,265.62,959.71,269.59Z"/><path class="cls-10" d="M958.85,263.53c0,1.8-.45,1.8-.45,1.8-1.68.84-8.11,1.61-10.53,0-.26-.17-.3-1-.35-1.6a.63.63,0,0,1,.38-.17C951.91,263.33,957,263,958.85,263.53Z"/></g><path class="cls-35" d="M953.71,248.74h-1.85c.31,6-2.24,9.44-1.59,10.76a3,3,0,0,0,5.3,0C956.22,258.18,953.71,256.43,953.71,248.74Z"/><path class="cls-10" d="M947.44,254.29c-1.1-2.45-4.86-4.56-7.13-.73a.94.94,0,0,0,0,1c.65,1,2.54,3.06,6.62,1.07A1,1,0,0,0,947.44,254.29Z"/><path class="cls-36" d="M946.19,253.7a2.2,2.2,0,1,1-1.73-1.73A2.2,2.2,0,0,1,946.19,253.7Z"/><path class="cls-37" d="M945.24,253.93a1.22,1.22,0,1,1-1-1A1.22,1.22,0,0,1,945.24,253.93Z"/><circle class="cls-10" cx="945.23" cy="254.14" r="0.4"/><path class="cls-10" d="M942.85,253.15a.81.81,0,1,0,.58-.59A.81.81,0,0,0,942.85,253.15Z"/><path class="cls-38" d="M940.26,254.41a3.88,3.88,0,0,0,2.87,2,9.7,9.7,0,0,0,3.68-.44,5.76,5.76,0,0,1-1.76.89,4.67,4.67,0,0,1-2,.18,3.47,3.47,0,0,1-1.86-.88A2.86,2.86,0,0,1,940.26,254.41Z"/><path class="cls-29" d="M947.37,255.22a1.24,1.24,0,0,0-.26-1.24,8.74,8.74,0,0,0-.87-1,3.94,3.94,0,0,0-2.25-1.12,3.26,3.26,0,0,0-2.43.46,4.49,4.49,0,0,0-1,.9,2,2,0,0,0-.36.56,1.17,1.17,0,0,0,0,.66,1.16,1.16,0,0,1-.12-.69,3.1,3.1,0,0,1,.26-.67,3.58,3.58,0,0,1,.88-1.14,3.42,3.42,0,0,1,2.8-.72,3.86,3.86,0,0,1,2.51,1.43,5.13,5.13,0,0,1,.72,1.22A1.31,1.31,0,0,1,947.37,255.22Z"/><path class="cls-10" d="M958.92,254.29c1.1-2.45,4.86-4.56,7.13-.73a.94.94,0,0,1,0,1c-.65,1-2.54,3.06-6.62,1.07A1,1,0,0,1,958.92,254.29Z"/><path class="cls-39" d="M960.17,253.7A2.2,2.2,0,1,0,961.9,252,2.2,2.2,0,0,0,960.17,253.7Z"/><path class="cls-40" d="M961.13,253.93a1.22,1.22,0,1,0,1-1A1.22,1.22,0,0,0,961.13,253.93Z"/><circle class="cls-10" cx="961.14" cy="254.14" r="0.4"/><path class="cls-10" d="M963.52,253.15a.81.81,0,1,1-.58-.59A.81.81,0,0,1,963.52,253.15Z"/><path class="cls-41" d="M966.11,254.41a2.86,2.86,0,0,1-.92,1.76,3.47,3.47,0,0,1-1.86.88,4.67,4.67,0,0,1-2-.18,5.76,5.76,0,0,1-1.76-.89,9.7,9.7,0,0,0,3.68.44A3.88,3.88,0,0,0,966.11,254.41Z"/><path class="cls-29" d="M959,255.22a1.31,1.31,0,0,1,0-1.36,5.13,5.13,0,0,1,.72-1.22,3.86,3.86,0,0,1,2.51-1.43,3.42,3.42,0,0,1,2.8.72,3.58,3.58,0,0,1,.88,1.14,3.1,3.1,0,0,1,.26.67,1.16,1.16,0,0,1-.12.69,1.17,1.17,0,0,0,0-.66,2,2,0,0,0-.36-.56,4.49,4.49,0,0,0-1-.9,3.26,3.26,0,0,0-2.43-.46,3.94,3.94,0,0,0-2.25,1.12,8.75,8.75,0,0,0-.87,1A1.24,1.24,0,0,0,959,255.22Z"/><path class="cls-42" d="M926.54,399.24h-4.88a3.67,3.67,0,0,1-3.67-3.67V360.29h12l.17,35.28A3.67,3.67,0,0,1,926.54,399.24Z"/><path class="cls-24" d="M917.95,389.73a15.16,15.16,0,0,0-1.06,3.21,13.72,13.72,0,0,0,.53,3.76c.33.63,2.33,3,2.52,3.4s.34,1.43,0,1.53c-.5.15-3.56-2.82-3.56-2.82l-2.35-5s.31-3.09.39-3.29,1.64-2.66,1.64-2.66"/><path class="cls-25" d="M913.23,386c-.75,3.32-1.51,7.84-1.28,9.2a43,43,0,0,0,2.41,5.88s4,3.32,4.52,3.39.68-1.24,0-2.07a39.77,39.77,0,0,1-2.75-3.13,33.05,33.05,0,0,1-.51-4.67c0-.64,1.53-3.05,2.47-3s1.47,1.77,1.47,2.45a7.52,7.52,0,0,0,.57,2.79c.34.53,1.21.75,1.55.34s.6-4.18.6-4.94-1.94-5.48-2.13-6.53,1.1-9.87,1.1-9.87l-7.53-.79S914,382.64,913.23,386Z"/><path class="cls-25" d="M925.93,293.08s-4.6-5.18-6.13,2c-1.42,6.66-5.2,30.39-7.43,44.17a34.52,34.52,0,0,0-.44,6c.09,6.87.48,23.93,2.12,38a22.43,22.43,0,0,0,6.26,0s3.41-28.75,3.41-39.86c0,0,8.17-27,8.17-41A9.83,9.83,0,0,0,925.93,293.08Z"/><path class="cls-13" d="M993.3,326.3c-6,2.39-9.61,4.14-14.61,3.82,0,4,0,15.54,1.54,20.48,1.83,6,2.45,10-4.94,9.26s-40.22,0-42.4,0a8.24,8.24,0,0,1-2.18-.23,5.37,5.37,0,0,1-2.71-1.55c-1.6-1.71-2-4.51-1-7.84,1.5-4.94,1.56-16.52,1.53-20.48-4.72.31-8.2-1.24-13.63-3.42l-1-.41a1.14,1.14,0,0,1-.69-1.28c3.15-15.89,3.45-28.38,9.15-34.91a15.61,15.61,0,0,1,5.1-3.34,50.8,50.8,0,0,1,5.86-2.18l8.51-2.83s-.24,4.59,11.8,4.67H954a24.76,24.76,0,0,0,8.76-1.19c2.8-1.36,2.71-3.12,2.71-3.12l3.5,1.16,2.87,1,2.15.71c3.21,1,8.74,3,11,5.52,5.68,6.52,6,19,9.13,34.85A1.2,1.2,0,0,1,993.3,326.3Z"/><path class="cls-13" d="M941.65,281.84V282A1.1,1.1,0,0,1,941.65,281.84Z"/><path class="cls-42" d="M971.79,283.87c-1.15,5.91-9.8,44.89-41.08,75.76q-2.7,2.67-5.62,5.24l-2-2.26q2.53-2.22,4.89-4.53c32.1-31.25,40.22-71.36,40.92-75.17Z"/><path class="cls-42" d="M942.91,310.88h-9a1.06,1.06,0,0,1-1.06-1.06h0a1.07,1.07,0,0,1,1.06-1.07h9a1.07,1.07,0,0,1,1.06,1.07h0A1.06,1.06,0,0,1,942.91,310.88Z"/><path class="cls-43" d="M928.86,315.49l-.29,14.27c-4.72.31-8.2-1.24-13.63-3.42,3.35.95,9.83,2,10.81,1.52C927,327.24,928.86,315.49,928.86,315.49Z"/><path class="cls-43" d="M978.44,315.87l.29,14.27c4.72.31,8.2-1.24,13.63-3.42-3.35.95-9.83,2-10.81,1.52C980.31,327.62,978.44,315.87,978.44,315.87Z"/></g></g></svg>