<svg id="Layer_4" data-name="Layer 4" xmlns="http://www.w3.org/2000/svg" viewBox="0 0 500 500"><defs><style>.cls-1{fill:#7f5cff;}</style></defs><title>bg-template</title><path class="cls-1" d="M234,384.29c-5.06,0-9.18,3.45-9.18,7.68s4.12,7.69,9.18,7.69,9.18-3.45,9.18-7.69-4.12-7.68-9.18-7.68Zm0,21c-8.74,0-15.85-6-15.85-13.28S225.27,378.7,234,378.7s15.85,6,15.85,13.28-7.11,13.28-15.85,13.28Z"/><polygon class="cls-1" points="237.35 381.5 230.67 381.5 230.67 333.98 7.15 333.98 7.15 23.31 37.18 6.7 122.25 6.7 122.25 12.29 39.94 12.29 13.82 25.62 13.82 328.39 237.35 328.39 237.35 381.5 237.35 381.5"/><polygon class="cls-1" points="417.21 333.98 246.11 333.98 246.11 328.39 414.45 328.39 487.56 267.15 487.56 12.29 234.01 12.29 234.01 6.7 494.23 6.7 494.23 269.46 417.21 333.98 417.21 333.98"/></svg>